<?xml version="1.0" standalone="no"?>
<!DOCTYPE svg PUBLIC "-//W3C//DTD SVG 20010904//EN"
 "http://www.w3.org/TR/2001/REC-SVG-20010904/DTD/svg10.dtd">
<svg version="1.0" xmlns="http://www.w3.org/2000/svg"
 width="1011.000000pt" height="316.000000pt" viewBox="0 0 1011.000000 316.000000"
 preserveAspectRatio="xMidYMid meet">

<g transform="translate(0.000000,316.000000) scale(0.100000,-0.100000)"
fill="#000000" stroke="none">
<path d="M229 3016 c-5 -5 -51 -16 -82 -20 -10 -1 -22 -8 -27 -15 -4 -8 -13
-10 -19 -7 -13 8 -13 5 -15 -135 -1 -78 2 -106 12 -106 6 0 12 4 12 9 0 4 8 8
18 8 16 -1 16 -1 -1 -11 -9 -6 -15 -14 -12 -20 3 -5 -1 -6 -9 -3 -12 5 -16 -1
-16 -22 0 -20 3 -25 9 -15 5 7 11 9 14 4 3 -5 2 -15 -4 -23 -5 -8 -9 -10 -10
-5 0 6 -4 -1 -8 -15 -12 -40 -6 -269 7 -282 9 -9 12 -9 12 0 0 7 8 12 18 12
16 -1 16 -1 -1 -11 -9 -6 -15 -14 -12 -20 3 -5 -1 -6 -9 -3 -15 6 -18 -2 -15
-33 0 -5 7 -7 14 -5 10 2 13 -3 9 -13 -3 -8 -10 -12 -15 -9 -5 3 -10 -23 -10
-58 -4 -199 -3 -238 1 -238 4 0 5 -17 3 -37 -2 -21 0 -32 3 -25 8 17 24 5 18
-13 -4 -8 -10 -12 -15 -9 -11 6 -11 -10 -10 -171 1 -66 1 -137 1 -157 -1 -21
4 -38 10 -38 5 0 10 -4 10 -10 0 -5 -6 -7 -13 -4 -11 4 -13 -22 -10 -133 2
-76 5 -146 7 -156 2 -10 0 -14 -6 -11 -7 4 -8 -5 -3 -27 4 -19 11 -35 16 -37
5 -2 9 -8 9 -13 0 -4 -6 -6 -13 -4 -9 4 -12 -26 -11 -132 1 -76 2 -144 3 -151
1 -8 10 -11 29 -7 l27 5 -26 -10 c-30 -12 -46 -58 -23 -67 8 -3 14 -9 14 -14
0 -4 -6 -6 -13 -4 -9 4 -12 -21 -10 -107 1 -62 2 -130 2 -151 1 -35 2 -37 29
-32 l27 5 -26 -10 c-32 -13 -44 -56 -20 -70 14 -8 14 -9 0 -10 -13 0 -15 -19
-13 -136 2 -75 6 -139 9 -142 12 -12 110 -40 113 -32 3 8 40 2 57 -10 9 -6 59
-6 143 1 17 2 32 8 32 13 0 6 5 5 12 -2 13 -13 42 -17 34 -4 -2 4 4 8 15 8 10
0 19 -4 19 -9 0 -5 7 -1 16 7 17 18 34 21 34 7 0 -5 7 -12 16 -15 10 -4 13 -2
8 7 -5 8 -2 7 9 -2 13 -10 17 -11 17 -1 0 9 7 7 20 -5 17 -16 24 -16 44 -5 14
7 34 10 45 7 15 -3 25 1 32 15 10 19 24 17 24 -3 0 -5 4 -9 9 -8 5 0 12 -5 17
-12 6 -10 16 -10 41 -3 18 5 54 9 80 9 25 0 45 2 43 5 -2 3 19 6 46 7 26 1 51
-2 54 -8 4 -5 10 -7 15 -4 5 3 27 1 49 -4 23 -5 41 -6 41 -2 0 3 20 6 45 6 25
0 45 -3 45 -7 0 -5 7 -8 15 -8 8 0 15 4 15 9 0 5 11 8 25 6 14 -1 25 1 25 5 0
4 14 6 31 4 20 -3 28 0 23 8 -4 7 -3 8 4 4 6 -4 8 -14 5 -23 -4 -11 -2 -14 8
-11 8 3 13 11 11 18 -2 10 0 11 10 3 19 -16 98 -25 98 -12 0 6 9 9 20 6 11 -3
20 0 20 6 0 6 6 2 14 -8 9 -13 19 -16 32 -10 10 4 46 9 79 11 33 1 72 4 87 7
16 3 26 1 25 -5 -2 -11 245 -14 263 -3 6 4 17 2 24 -4 11 -9 17 -8 28 2 11 11
18 12 30 3 8 -6 47 -10 89 -10 110 3 109 3 109 20 0 14 2 14 16 -1 14 -13 19
-14 25 -3 7 10 9 9 9 -4 0 -20 15 -24 25 -8 9 14 42 12 48 -2 3 -10 12 -9 35
5 16 9 34 17 39 17 4 -1 -3 -7 -17 -15 -18 -10 -20 -14 -8 -15 9 0 23 7 31 15
8 8 17 11 21 8 3 -3 18 -7 33 -9 16 -1 55 -5 87 -9 51 -7 61 -6 72 10 12 17
14 17 14 2 0 -18 39 -20 52 -3 4 6 12 6 20 -1 15 -12 49 -13 42 -1 -3 4 0 8 6
8 6 0 8 4 5 10 -3 6 1 7 9 4 9 -3 16 -11 16 -16 0 -6 14 -8 34 -4 19 4 45 1
59 -5 36 -16 101 -3 93 18 -5 12 -3 13 6 6 15 -11 58 -10 78 2 8 5 11 4 6 -3
-4 -7 5 -10 30 -9 22 2 40 9 45 20 6 9 15 17 22 17 8 0 7 -3 -2 -9 -21 -14 13
-45 40 -38 12 3 31 1 44 -5 15 -7 29 -7 40 0 11 5 33 6 54 1 28 -6 38 -5 44 7
8 14 10 13 21 -1 12 -16 14 -16 45 0 18 9 35 14 39 11 3 -3 -1 -6 -9 -6 -12 0
-12 -2 1 -10 9 -5 19 -5 27 1 7 6 17 8 23 4 6 -4 16 -2 23 3 7 5 22 8 34 7 17
-1 20 1 12 11 -7 8 -6 14 2 20 7 4 9 3 6 -3 -8 -13 29 -32 73 -37 19 -2 44 -7
54 -11 13 -6 23 -3 32 10 9 12 14 14 14 6 0 -9 8 -11 26 -7 14 4 32 2 39 -4
16 -13 67 7 59 24 -3 6 1 3 9 -7 11 -13 26 -17 56 -16 22 2 43 0 47 -3 3 -4
24 0 46 8 43 15 59 15 71 -1 4 -6 11 -4 17 5 8 13 10 12 10 -2 0 -20 20 -24
37 -7 8 8 16 7 31 -2 16 -10 24 -10 35 -1 7 7 17 8 21 4 4 -4 59 -8 123 -8 90
-1 116 2 120 13 4 11 8 11 17 -3 10 -13 17 -14 33 -6 14 8 23 8 32 -1 8 -8 18
-7 41 6 17 10 30 14 30 9 0 -5 33 -12 72 -16 60 -5 75 -4 84 9 7 9 14 11 15 6
6 -16 160 -22 181 -7 10 7 15 16 10 21 -4 5 -1 5 6 1 7 -4 9 -12 6 -18 -5 -7
-1 -9 9 -5 9 3 19 3 21 -2 3 -4 29 -6 58 -4 70 5 60 5 166 0 50 -3 94 -1 97 4
3 4 16 3 30 -3 16 -7 32 -7 53 0 18 6 35 6 43 1 16 -11 169 -9 169 2 0 4 17 3
37 -3 27 -7 38 -7 41 1 2 6 10 11 18 11 9 0 12 5 8 11 -4 8 0 8 15 0 11 -7 21
-9 21 -6 0 3 10 -1 23 -9 12 -7 31 -12 42 -10 31 7 114 6 146 -1 16 -4 29 -2
29 3 0 9 51 7 78 -3 6 -2 19 -2 27 1 13 5 13 9 3 23 -11 14 -11 14 3 4 9 -7
20 -9 24 -5 5 4 5 1 1 -6 -11 -19 75 -3 92 17 12 14 13 14 8 -3 -5 -16 -2 -18
24 -14 16 2 31 0 33 -5 1 -5 25 -9 52 -8 64 3 65 3 97 -2 17 -3 25 0 22 7 -3
7 6 12 18 13 18 2 20 0 8 -7 -11 -7 -4 -10 25 -11 22 0 49 -2 60 -4 10 -2 25
1 32 7 9 7 17 7 27 -1 12 -10 19 -8 35 8 12 12 21 17 21 11 0 -5 9 -10 19 -10
11 0 21 -5 23 -12 3 -9 12 -9 35 1 37 15 115 23 108 11 -10 -16 14 -20 69 -12
31 5 59 5 64 0 12 -12 43 2 35 16 -4 6 1 5 10 -3 22 -17 73 -24 96 -12 10 6
23 6 34 0 12 -7 24 -5 42 7 14 9 28 14 32 10 3 -3 1 -6 -5 -6 -7 0 -12 -5 -12
-11 0 -7 16 -9 48 -5 59 8 114 8 175 2 33 -4 58 -1 79 10 16 8 32 13 36 10 3
-3 0 -6 -6 -6 -7 0 -12 -4 -12 -10 0 -16 30 -12 36 5 4 8 15 15 26 15 10 0 17
-4 14 -9 -8 -13 18 -16 122 -16 71 0 95 3 102 15 8 13 10 12 10 -2 0 -13 7
-17 25 -16 14 1 25 6 25 11 0 5 7 4 15 -3 8 -7 22 -9 32 -5 10 4 34 7 53 6
134 -7 160 -7 160 0 0 5 10 5 23 0 22 -9 78 -2 122 14 14 5 16 4 7 -3 -11 -7
-8 -10 12 -14 14 -3 23 -1 20 3 -7 12 14 49 29 49 8 0 7 -4 -3 -11 -12 -8 -12
-12 -2 -16 10 -4 10 -8 2 -19 -10 -11 -6 -12 19 -4 17 5 33 5 35 1 5 -7 59 -8
81 -1 6 2 23 0 38 -5 20 -5 33 -3 46 9 13 12 21 14 26 6 4 -6 16 -8 26 -5 11
4 27 1 35 -6 12 -9 20 -9 39 1 13 7 22 18 19 24 -3 6 2 2 10 -8 16 -20 43 -22
126 -10 81 11 115 10 126 -6 10 -11 15 -12 27 -2 8 7 22 10 31 6 23 -9 68 4
60 18 -4 7 -3 8 4 4 6 -4 9 -13 5 -21 -6 -16 8 -19 45 -8 17 4 22 11 19 24 -3
11 0 22 5 26 7 3 8 1 4 -5 -4 -7 -2 -12 3 -12 6 0 11 -7 11 -15 0 -13 7 -15
34 -10 20 4 36 2 40 -4 10 -16 52 -13 66 4 11 13 15 13 22 3 6 -10 12 -9 23 6
14 18 16 18 33 3 24 -22 48 -22 57 0 6 16 8 16 18 2 14 -19 115 -32 140 -18
11 6 17 6 17 0 0 -12 57 -8 71 6 9 9 15 8 25 -2 12 -12 18 -12 42 1 15 7 35
14 45 14 16 0 17 76 17 1455 l0 1455 -24 0 c-14 0 -27 4 -30 9 -13 20 -69 18
-112 -5 -28 -15 -41 -18 -38 -9 7 17 -28 23 -123 23 -49 0 -73 -3 -73 -11 0
-8 -3 -8 -8 -2 -4 6 -26 10 -48 10 -32 0 -40 -3 -36 -14 4 -11 -4 -9 -29 6
-36 22 -102 24 -135 4 -13 -7 -14 -10 -5 -11 8 0 11 -3 8 -7 -4 -3 -17 2 -29
13 -13 12 -18 13 -13 4 8 -13 6 -13 -7 -2 -11 9 -41 12 -92 10 -42 -2 -76 1
-76 6 0 5 -3 6 -6 3 -4 -4 -1 -14 7 -24 12 -15 12 -16 -4 -10 -10 4 -21 7 -23
7 -3 0 -2 4 1 10 3 6 -4 9 -19 8 -13 -1 -22 -6 -20 -10 3 -4 1 -8 -5 -8 -6 0
-8 -6 -5 -14 3 -8 1 -17 -5 -21 -7 -4 -8 0 -4 11 5 13 3 15 -8 9 -11 -6 -12
-5 -1 6 6 7 12 15 12 19 0 3 -63 6 -139 7 -77 1 -143 3 -148 4 -20 3 -25 -2
-13 -16 7 -8 8 -15 3 -15 -5 0 -17 9 -26 21 -16 18 -20 19 -30 7 -7 -8 -19
-18 -27 -23 -10 -6 -9 -4 2 6 16 16 8 17 -125 17 -153 0 -181 -3 -171 -21 3
-7 0 -5 -8 4 -17 20 -71 32 -64 14 3 -8 -1 -16 -9 -19 -9 -3 -12 0 -9 9 5 11
-12 13 -88 11 -51 -1 -101 2 -112 7 -13 6 -21 5 -26 -3 -4 -7 -13 -9 -19 -6
-15 10 -53 -3 -46 -15 4 -5 1 -9 -5 -9 -7 0 -9 8 -5 20 7 20 -4 26 -21 12 -5
-5 -22 -14 -39 -20 -28 -11 -28 -11 -11 3 22 16 19 18 -34 15 -123 -5 -220 -4
-220 2 0 4 -11 3 -25 -4 -13 -6 -22 -15 -19 -19 3 -5 0 -9 -6 -9 -7 0 -10 7
-7 15 8 19 -13 31 -24 14 -5 -8 -9 -11 -9 -6 0 4 -12 0 -27 -9 -20 -11 -23
-12 -10 -1 16 14 16 15 -13 19 -16 3 -30 1 -30 -3 0 -9 -68 -17 -78 -8 -9 9
-112 16 -112 7 0 -3 -33 -4 -72 -2 -40 3 -86 4 -103 3 -16 -1 -42 -2 -57 -2
-15 0 -25 -4 -21 -9 3 -6 -4 -5 -16 1 -11 7 -21 8 -21 2 0 -5 -15 -6 -37 0
-21 4 -49 5 -62 2 -17 -4 -22 -2 -17 6 6 8 1 8 -18 0 -14 -7 -23 -17 -20 -23
3 -6 -1 -3 -8 6 -12 14 -30 17 -94 16 -44 -1 -82 -6 -86 -12 -6 -8 -8 -8 -8 0
0 9 -43 17 -85 15 -38 -1 -104 -15 -100 -21 2 -3 -3 -7 -11 -7 -10 0 -11 4 -4
11 5 5 10 13 10 16 0 11 -274 3 -278 -9 -2 -6 -8 -11 -13 -11 -6 0 -8 4 -4 9
3 5 -9 8 -27 6 -18 -2 -39 -4 -46 -4 -7 -1 -10 -7 -7 -13 4 -7 1 -6 -7 2 -14
16 -61 24 -52 9 3 -5 -2 -9 -10 -9 -9 0 -16 4 -16 9 0 5 -39 8 -87 7 -49 -2
-100 1 -115 5 -19 5 -28 4 -28 -4 0 -7 -4 -6 -10 3 -5 8 -10 10 -10 3 0 -6
-11 -10 -24 -9 -15 2 -23 -1 -20 -9 3 -6 -2 -12 -10 -12 -8 0 -13 4 -11 7 6 9
-98 30 -105 22 -8 -11 -194 -8 -202 3 -5 6 -8 6 -8 -2 0 -6 -11 -10 -24 -9
-15 2 -23 -1 -20 -9 3 -6 -2 -12 -10 -12 -9 0 -12 6 -8 16 5 14 3 14 -10 3 -9
-7 -19 -9 -22 -4 -3 5 -54 9 -113 9 -60 0 -118 3 -130 7 -13 4 -23 3 -23 -2 0
-6 -9 -8 -20 -5 -11 3 -27 -1 -36 -8 -12 -10 -17 -10 -23 0 -12 18 -13 18 -51
-7 -28 -19 -30 -20 -12 -3 l24 21 -134 -2 c-73 -1 -139 1 -145 5 -6 4 -15 2
-18 -4 -4 -5 -13 -8 -21 -5 -9 3 -11 -1 -8 -12 5 -16 4 -16 -9 0 -8 10 -17 15
-20 11 -4 -3 -7 -1 -7 5 0 6 -6 9 -12 7 -27 -9 -128 -14 -128 -6 0 5 -19 5
-42 1 -49 -8 -105 -6 -114 3 -4 3 -15 2 -25 -4 -14 -7 -19 -6 -19 2 0 7 -3 9
-6 6 -4 -4 -1 -14 7 -24 12 -15 12 -16 -4 -10 -10 4 -21 7 -23 7 -3 0 -3 3 -1
8 3 4 -5 7 -18 7 -13 0 -22 -2 -20 -5 2 -4 -6 -12 -18 -19 -18 -11 -20 -11 -9
0 23 24 12 29 -57 26 -39 -2 -93 -1 -120 3 -28 3 -51 2 -51 -2 0 -5 -5 -6 -10
-3 -15 10 -51 -5 -44 -17 5 -8 1 -9 -10 -5 -10 4 -20 7 -23 7 -3 0 0 7 7 15
19 23 -1 18 -45 -12 -22 -15 -34 -19 -26 -10 8 10 11 21 7 25 -8 7 -181 7
-254 -1 -23 -2 -45 0 -48 5 -3 5 -12 4 -20 -3 -7 -6 -21 -9 -29 -5 -9 3 -14 2
-11 -2 3 -4 -5 -14 -17 -21 -18 -11 -20 -11 -9 0 6 7 12 17 12 21 0 9 -51 9
-84 1 -15 -4 -16 -7 -5 -15 12 -8 11 -9 -1 -5 -8 2 -14 11 -12 20 3 15 -6 16
-115 2 -18 -2 -33 0 -33 5 0 6 -9 6 -22 1 -13 -5 -22 -14 -20 -20 1 -6 -2 -11
-8 -11 -5 0 -10 4 -10 9 0 4 -12 7 -27 6 -41 -3 -43 -4 -37 -19 3 -8 1 -16 -3
-19 -5 -3 -9 6 -9 21 1 25 -2 27 -39 27 -22 0 -44 3 -50 6 -5 4 -19 5 -30 3
-11 -2 -37 -4 -57 -5 -20 -1 -35 -6 -32 -11 3 -4 -5 -4 -18 1 -13 4 -41 8 -63
7 -22 -1 -49 2 -59 7 -15 7 -18 6 -13 -6 3 -8 0 -18 -8 -21 -8 -3 -12 0 -9 7
3 9 -9 11 -41 9 -25 -2 -45 0 -45 4 0 10 -106 10 -138 0 -14 -5 -22 -3 -22 4
0 7 -6 8 -16 2 -9 -5 -37 -7 -62 -4 -30 3 -43 1 -39 -5 4 -6 0 -13 -8 -16 -9
-4 -12 -1 -8 9 5 15 6 15 -162 14 -43 0 -72 -2 -126 -9 -5 0 -7 -7 -4 -13 4
-7 -1 -4 -9 6 -9 11 -16 15 -16 8 0 -8 -7 -9 -26 -2 -33 13 -100 13 -124 0
-13 -7 -19 -6 -23 5 -7 16 -72 12 -94 -7 -10 -8 -13 -6 -13 8 0 16 -2 17 -10
4 -7 -10 -13 -11 -17 -4 -6 7 -15 7 -30 -1 -13 -7 -22 -14 -20 -16 1 -2 -3 1
-8 8 -7 7 -43 11 -90 12 -44 0 -110 1 -147 3 -38 2 -68 0 -68 -5 0 -5 -8 -7
-17 -6 -34 3 -54 -1 -49 -10 7 -11 -21 -8 -31 4 -4 4 -2 5 5 1 6 -4 12 -3 12
3 0 18 -17 21 -30 6 -14 -17 -40 -20 -40 -6 0 11 -62 8 -99 -4 -15 -4 -21 -3
-17 3 3 6 -18 12 -52 14 -31 3 -59 1 -60 -3 -2 -5 -8 -7 -12 -4 -15 9 -60 -6
-54 -19 3 -6 -1 -3 -9 7 -8 9 -27 17 -43 17 -22 0 -26 -3 -14 -10 13 -8 12
-10 -2 -10 -10 0 -18 4 -18 9 0 5 -11 8 -25 6 -14 -1 -28 2 -31 6 -3 5 -40 6
-82 3 -42 -4 -96 -7 -118 -8 -25 -1 -40 -5 -37 -12 2 -6 -3 -11 -11 -11 -8 0
-12 6 -9 13 6 17 -17 12 -53 -9 l-29 -18 25 21 25 22 -41 -3 c-22 -2 -45 0
-51 4 -6 4 -15 2 -18 -4 -4 -5 -13 -8 -21 -5 -7 3 -16 1 -18 -3 -8 -12 -60 -5
-64 8 -4 11 -15 14 -23 7z m3327 -33 c-7 -7 -26 7 -26 19 0 6 6 6 15 -2 9 -7
13 -15 11 -17z m2979 17 c-3 -5 -14 -10 -23 -9 -14 0 -13 2 3 9 27 11 27 11
20 0z m-4565 -4 c0 -2 -7 -7 -16 -10 -8 -3 -12 -2 -9 4 6 10 25 14 25 6z m444
-4 c3 -5 -1 -9 -9 -9 -8 0 -12 4 -9 9 3 4 7 8 9 8 2 0 6 -4 9 -8z m381 -2 c3
-5 1 -10 -4 -10 -6 0 -11 5 -11 10 0 6 2 10 4 10 3 0 8 -4 11 -10z m1350 -8
c-3 -3 -11 0 -18 7 -9 10 -8 11 6 5 10 -3 15 -9 12 -12z m484 15 c-2 -1 -13
-9 -24 -17 -19 -14 -19 -14 -6 3 7 9 18 17 24 17 6 0 8 -1 6 -3z m760 0 c-2
-1 -13 -9 -24 -17 -19 -14 -19 -14 -6 3 7 9 18 17 24 17 6 0 8 -1 6 -3z m378
-3 c-3 -3 -12 -4 -19 -1 -8 3 -5 6 6 6 11 1 17 -2 13 -5z m1513 2 c0 -2 -7 -7
-16 -10 -8 -3 -12 -2 -9 4 6 10 25 14 25 6z m65 -6 c3 -5 1 -10 -4 -10 -6 0
-11 5 -11 10 0 6 2 10 4 10 3 0 8 -4 11 -10z m1350 -8 c-3 -3 -11 0 -18 7 -9
10 -8 11 6 5 10 -3 15 -9 12 -12z m864 15 c-2 -1 -13 -9 -24 -17 -19 -14 -19
-14 -6 3 7 9 18 17 24 17 6 0 8 -1 6 -3z m-8989 -11 c0 -3 -4 -8 -10 -11 -5
-3 -10 -1 -10 4 0 6 5 11 10 11 6 0 10 -2 10 -4z m380 0 c0 -3 -4 -8 -10 -11
-5 -3 -10 -1 -10 4 0 6 5 11 10 11 6 0 10 -2 10 -4z m380 -6 c0 -5 -4 -10 -10
-10 -5 0 -10 5 -10 10 0 6 5 10 10 10 6 0 10 -4 10 -10z m380 0 c0 -5 -4 -10
-10 -10 -5 0 -10 5 -10 10 0 6 5 10 10 10 6 0 10 -4 10 -10z m380 6 c0 -3 -4
-8 -10 -11 -5 -3 -10 -1 -10 4 0 6 5 11 10 11 6 0 10 -2 10 -4z m380 0 c0 -3
-4 -8 -10 -11 -5 -3 -10 -1 -10 4 0 6 5 11 10 11 6 0 10 -2 10 -4z m760 -6 c0
-5 -2 -10 -4 -10 -3 0 -8 5 -11 10 -3 6 -1 10 4 10 6 0 11 -4 11 -10z m380 0
c0 -5 -2 -10 -4 -10 -3 0 -8 5 -11 10 -3 6 -1 10 4 10 6 0 11 -4 11 -10z m380
0 c0 -5 -2 -10 -4 -10 -3 0 -8 5 -11 10 -3 6 -1 10 4 10 6 0 11 -4 11 -10z
m380 2 c0 -5 -7 -9 -15 -9 -8 0 -15 4 -15 9 0 4 7 8 15 8 8 0 15 -4 15 -8z
m380 0 c0 -5 -7 -9 -15 -9 -8 0 -15 4 -15 9 0 4 7 8 15 8 8 0 15 -4 15 -8z
m370 4 c0 -3 -4 -8 -10 -11 -5 -3 -10 -1 -10 4 0 6 5 11 10 11 6 0 10 -2 10
-4z m380 0 c0 -3 -4 -8 -10 -11 -5 -3 -10 -1 -10 4 0 6 5 11 10 11 6 0 10 -2
10 -4z m380 0 c0 -3 -4 -8 -10 -11 -5 -3 -10 -1 -10 4 0 6 5 11 10 11 6 0 10
-2 10 -4z m380 0 c0 -3 -4 -8 -10 -11 -5 -3 -10 -1 -10 4 0 6 5 11 10 11 6 0
10 -2 10 -4z m380 -6 c0 -5 -4 -10 -10 -10 -5 0 -10 5 -10 10 0 6 5 10 10 10
6 0 10 -4 10 -10z m380 0 c0 -5 -4 -10 -10 -10 -5 0 -10 5 -10 10 0 6 5 10 10
10 6 0 10 -4 10 -10z m380 6 c0 -3 -4 -8 -10 -11 -5 -3 -10 -1 -10 4 0 6 5 11
10 11 6 0 10 -2 10 -4z m380 0 c0 -3 -4 -8 -10 -11 -5 -3 -10 -1 -10 4 0 6 5
11 10 11 6 0 10 -2 10 -4z m1520 0 c0 -2 -7 -6 -15 -10 -8 -3 -15 -1 -15 4 0
6 7 10 15 10 8 0 15 -2 15 -4z m380 0 c0 -2 -7 -6 -15 -10 -8 -3 -15 -1 -15 4
0 6 7 10 15 10 8 0 15 -2 15 -4z m-8855 -24 c-3 -3 -11 0 -18 7 -9 10 -8 11 6
5 10 -3 15 -9 12 -12z m380 0 c-3 -3 -11 0 -18 7 -9 10 -8 11 6 5 10 -3 15 -9
12 -12z m380 0 c-3 -3 -11 0 -18 7 -9 10 -8 11 6 5 10 -3 15 -9 12 -12z m4170
0 c-3 -3 -11 0 -18 7 -9 10 -8 11 6 5 10 -3 15 -9 12 -12z m380 0 c-3 -3 -11
0 -18 7 -9 10 -8 11 6 5 10 -3 15 -9 12 -12z m380 0 c-3 -3 -11 0 -18 7 -9 10
-8 11 6 5 10 -3 15 -9 12 -12z m380 0 c-3 -3 -11 0 -18 7 -9 10 -8 11 6 5 10
-3 15 -9 12 -12z m-5458 -14 c-3 -8 -6 -5 -6 6 -1 11 2 17 5 13 3 -3 4 -12 1
-19z m380 0 c-3 -8 -6 -5 -6 6 -1 11 2 17 5 13 3 -3 4 -12 1 -19z m153 18 c0
-2 -7 -7 -16 -10 -8 -3 -12 -2 -9 4 6 10 25 14 25 6z m227 -18 c-3 -8 -6 -5
-6 6 -1 11 2 17 5 13 3 -3 4 -12 1 -19z m153 18 c0 -2 -7 -7 -16 -10 -8 -3
-12 -2 -9 4 6 10 25 14 25 6z m226 -23 c-10 -10 -19 5 -10 18 6 11 8 11 12 0
2 -7 1 -15 -2 -18z m154 23 c0 -2 -7 -7 -16 -10 -8 -3 -12 -2 -9 4 6 10 25 14
25 6z m226 -23 c-10 -10 -19 5 -10 18 6 11 8 11 12 0 2 -7 1 -15 -2 -18z m380
0 c-10 -10 -19 5 -10 18 6 11 8 11 12 0 2 -7 1 -15 -2 -18z m384 11 c0 -8 -5
-12 -10 -9 -6 4 -8 11 -5 16 9 14 15 11 15 -7z m376 -11 c-10 -10 -19 5 -10
18 6 11 8 11 12 0 2 -7 1 -15 -2 -18z m384 13 c0 -8 -7 -16 -15 -20 -13 -4
-14 -2 -5 14 13 23 20 26 20 6z m376 -13 c-10 -10 -19 5 -10 18 6 11 8 11 12
0 2 -7 1 -15 -2 -18z m1511 5 c-3 -8 -6 -5 -6 6 -1 11 2 17 5 13 3 -3 4 -12 1
-19z m380 0 c-3 -8 -6 -5 -6 6 -1 11 2 17 5 13 3 -3 4 -12 1 -19z m380 0 c-3
-8 -6 -5 -6 6 -1 11 2 17 5 13 3 -3 4 -12 1 -19z m153 18 c0 -2 -7 -7 -16 -10
-8 -3 -12 -2 -9 4 6 10 25 14 25 6z m227 -18 c-3 -8 -6 -5 -6 6 -1 11 2 17 5
13 3 -3 4 -12 1 -19z m153 18 c0 -2 -7 -7 -16 -10 -8 -3 -12 -2 -9 4 6 10 25
14 25 6z m226 -23 c-10 -10 -19 5 -10 18 6 11 8 11 12 0 2 -7 1 -15 -2 -18z
m380 0 c-10 -10 -19 5 -10 18 6 11 8 11 12 0 2 -7 1 -15 -2 -18z m380 0 c-10
-10 -19 5 -10 18 6 11 8 11 12 0 2 -7 1 -15 -2 -18z m384 13 c0 -8 -7 -16 -15
-20 -13 -4 -14 -2 -5 14 13 23 20 26 20 6z m376 -13 c-10 -10 -19 5 -10 18 6
11 8 11 12 0 2 -7 1 -15 -2 -18z m380 0 c-10 -10 -19 5 -10 18 6 11 8 11 12 0
2 -7 1 -15 -2 -18z m301 5 c-3 -8 -6 -5 -6 6 -1 11 2 17 5 13 3 -3 4 -12 1
-19z m-9577 2 c0 -5 -5 -10 -11 -10 -5 0 -7 5 -4 10 3 6 8 10 11 10 2 0 4 -4
4 -10z m240 5 c0 -7 -30 -13 -34 -7 -3 4 4 9 15 9 10 1 19 0 19 -2z m140 -5
c0 -5 -5 -10 -11 -10 -5 0 -7 5 -4 10 3 6 8 10 11 10 2 0 4 -4 4 -10z m161
-13 c-10 -9 -11 -8 -5 6 3 10 9 15 12 12 3 -3 0 -11 -7 -18z m79 19 c0 -9 -30
-14 -35 -6 -4 6 3 10 14 10 12 0 21 -2 21 -4z m150 -6 c-8 -5 -22 -10 -30 -10
-13 0 -13 1 0 10 8 5 22 10 30 10 13 0 13 -1 0 -10z m230 6 c0 -9 -30 -14 -35
-6 -4 6 3 10 14 10 12 0 21 -2 21 -4z m150 -6 c-8 -5 -22 -10 -30 -10 -13 0
-13 1 0 10 8 5 22 10 30 10 13 0 13 -1 0 -10z m1880 0 c0 -5 -5 -10 -11 -10
-5 0 -7 5 -4 10 3 6 8 10 11 10 2 0 4 -4 4 -10z m380 0 c0 -5 -5 -10 -11 -10
-5 0 -7 5 -4 10 3 6 8 10 11 10 2 0 4 -4 4 -10z m380 0 c0 -5 -5 -10 -11 -10
-5 0 -7 5 -4 10 3 6 8 10 11 10 2 0 4 -4 4 -10z m217 -4 c-3 -8 5 -18 19 -25
13 -6 24 -15 24 -21 0 -5 7 -10 15 -10 8 0 15 5 15 11 0 7 10 9 28 5 20 -5 23
-4 12 4 -8 5 -10 10 -4 10 6 0 17 -7 24 -15 11 -13 15 -13 21 -3 7 10 11 10
21 0 15 -15 32 -16 22 -1 -4 8 7 9 39 5 27 -4 48 -2 52 4 4 6 12 7 18 3 15
-10 96 -10 90 0 -2 4 -11 7 -20 7 -9 0 -14 3 -10 6 10 10 47 -7 47 -22 0 -8 7
-14 15 -14 8 0 15 4 15 9 0 14 52 20 72 7 15 -9 21 -8 28 4 8 12 10 12 10 1 0
-8 6 -11 16 -7 8 3 12 2 9 -4 -4 -6 5 -9 19 -8 15 1 26 5 26 8 0 4 14 4 31 2
25 -4 30 -2 24 9 -8 12 -6 12 8 1 9 -8 25 -11 37 -7 11 4 20 2 20 -4 0 -14 27
-14 35 -1 3 6 -4 15 -17 20 -22 10 -22 10 2 4 14 -4 46 -8 72 -9 25 -2 55 -6
67 -10 14 -4 21 -2 21 6 0 10 3 10 11 2 6 -6 18 -9 25 -6 8 3 21 0 29 -7 9 -8
15 -8 15 -2 0 6 8 9 18 7 9 -2 17 -4 17 -5 0 -1 23 -4 52 -6 38 -3 52 0 57 11
7 19 26 19 26 0 0 -19 10 -19 46 0 19 10 30 11 35 4 7 -12 16 -11 42 2 9 5 17
6 17 2 0 -5 27 -8 60 -9 33 0 60 4 60 9 0 5 6 4 14 -2 15 -12 97 -11 89 2 -2
4 1 7 6 7 6 0 11 -7 11 -15 0 -17 16 -21 22 -5 4 13 95 13 128 0 14 -6 37 -5
51 2 9 4 19 5 23 1 9 -9 196 -12 196 -3 0 4 9 10 20 13 11 3 20 1 20 -5 0 -5
5 -6 10 -3 6 3 10 2 10 -3 0 -10 62 -8 79 2 5 4 13 1 17 -5 4 -8 9 -7 15 2 5
8 9 9 9 4 0 -9 37 -11 123 -6 19 0 26 5 21 13 -5 7 -3 8 7 2 18 -11 90 -13 83
-3 -3 5 2 6 10 3 9 -3 16 -10 16 -15 0 -5 7 -9 15 -9 8 0 15 4 15 8 0 4 49 7
109 7 60 0 107 -3 104 -7 -6 -11 9 -10 26 1 9 6 22 6 33 0 12 -6 18 -6 18 0 0
5 9 8 20 6 14 -3 18 0 13 8 -4 7 5 4 20 -6 15 -9 27 -14 27 -9 0 8 105 7 180
-1 19 -3 40 1 47 9 10 10 20 10 43 1 23 -9 35 -9 50 1 16 10 20 10 18 0 -3
-14 35 -12 40 2 2 4 12 6 22 3 11 -3 17 -10 13 -16 -6 -10 13 -7 51 9 13 5 17
4 13 -4 -5 -7 10 -9 48 -7 70 5 95 13 95 31 0 8 4 14 10 14 5 0 7 -7 4 -15 -4
-10 0 -15 12 -16 11 0 28 -2 39 -4 57 -11 82 -11 99 -3 14 8 17 7 11 -3 -6 -8
-4 -10 6 -4 21 13 53 14 62 1 5 -8 12 -6 21 6 7 10 15 16 18 13 9 -10 98 -13
98 -4 0 6 7 3 16 -5 18 -18 44 -21 44 -5 0 5 5 7 12 3 7 -5 9 -2 5 9 -4 11 -2
14 8 10 8 -3 13 -9 10 -14 -3 -4 27 -6 66 -4 44 3 78 0 86 -6 9 -9 14 -7 19 5
6 15 8 15 24 1 10 -9 31 -14 51 -12 27 2 35 7 37 25 2 12 7 22 12 22 5 0 7 -7
4 -15 -6 -16 -5 -17 39 -19 18 -1 26 2 23 10 -3 8 6 7 26 -3 24 -12 32 -13 38
-3 5 9 9 9 14 1 4 -6 11 -9 16 -6 5 3 11 1 15 -5 4 -7 12 -7 25 0 10 5 25 7
33 4 8 -3 18 -1 21 5 4 6 23 5 54 -4 59 -18 62 -18 62 1 0 8 5 12 10 9 6 -4 7
-12 4 -18 -5 -8 -3 -8 7 1 7 6 24 12 37 12 14 0 21 4 16 11 -4 7 1 7 16 -1 12
-6 31 -10 41 -7 11 3 23 -1 28 -10 8 -16 22 -15 65 3 14 5 17 4 12 -4 -8 -13
4 -15 28 -6 9 3 13 11 9 18 -3 6 2 4 13 -5 10 -9 28 -14 39 -12 11 3 28 5 38
6 17 1 17 2 1 14 -10 7 -13 13 -7 13 6 0 22 -9 36 -20 31 -24 35 -25 60 -2 11
9 17 12 14 6 -4 -7 3 -14 18 -17 17 -3 29 1 35 12 5 9 10 11 10 4 0 -8 14 -11
45 -9 24 2 46 -1 47 -6 2 -5 11 -6 21 -3 9 4 14 11 11 16 -6 10 25 1 42 -12 5
-5 23 -4 40 0 l29 9 -25 10 c-14 6 -19 11 -11 11 7 1 29 -8 47 -20 19 -11 34
-16 34 -10 0 6 7 11 15 11 8 0 12 6 9 14 -3 8 -1 17 5 21 6 3 9 0 5 -8 -5 -15
48 -41 60 -30 3 4 6 1 6 -5 0 -7 6 -12 14 -12 21 0 26 -23 17 -82 -5 -29 -5
-62 -1 -74 5 -12 6 -24 3 -27 -7 -8 -6 -190 1 -215 5 -14 3 -22 -4 -22 -7 0
-9 -7 -6 -17 4 -9 7 -63 7 -120 0 -59 4 -103 9 -103 6 0 10 -5 10 -11 0 -5 -4
-7 -10 -4 -6 4 -10 -15 -10 -50 0 -39 3 -54 11 -49 7 4 10 1 7 -7 -3 -8 -10
-13 -15 -12 -5 1 -8 -27 -6 -65 2 -37 3 -89 2 -117 -2 -63 -2 -103 2 -238 2
-59 1 -107 -3 -107 -4 0 -5 -30 -3 -67 7 -95 8 -340 2 -350 -3 -4 -2 -51 2
-103 4 -52 4 -106 0 -120 -3 -14 -3 -47 0 -72 4 -25 4 -54 1 -64 -4 -11 -4
-63 -1 -117 3 -53 4 -97 1 -97 -3 0 -4 -19 -3 -42 3 -52 3 -125 0 -235 -1 -46
2 -84 7 -86 5 -2 6 -9 2 -15 -5 -8 -38 -12 -97 -12 -59 0 -89 -4 -89 -11 0 -8
-4 -8 -14 0 -7 6 -45 11 -88 10 l-75 -1 4 -27 c4 -25 4 -25 -10 4 -9 20 -16
25 -21 17 -4 -7 -12 -10 -17 -7 -5 4 -9 0 -9 -7 0 -10 -2 -10 -8 -1 -11 17
-142 30 -142 14 0 -7 -4 -10 -9 -6 -20 11 -145 14 -159 3 -10 -9 -16 -8 -22 1
-6 10 -27 12 -86 7 -105 -8 -98 -8 -186 -2 -44 3 -80 1 -83 -5 -4 -5 -12 -9
-18 -9 -7 0 -6 4 3 10 13 8 12 10 -4 10 -10 0 -25 -8 -32 -17 -11 -15 -15 -16
-23 -4 -11 17 -208 26 -246 11 -15 -6 -27 -6 -30 0 -10 17 -36 -1 -30 -21 4
-11 2 -19 -4 -19 -6 0 -11 7 -11 15 0 8 -9 19 -20 25 -15 8 -20 8 -18 -1 2 -6
-3 -14 -11 -17 -9 -3 -12 0 -8 10 5 13 -14 15 -131 15 -91 0 -139 -3 -144 -11
-6 -8 -8 -7 -8 2 0 17 -370 16 -370 -1 0 -9 -2 -9 -8 0 -9 14 -232 15 -232 1
0 -5 -9 -4 -20 2 -23 13 -112 9 -122 -5 -5 -6 -8 -6 -8 2 0 8 -33 12 -115 12
-67 0 -115 -4 -115 -10 0 -6 -9 -5 -21 1 -24 14 -111 10 -121 -5 -5 -6 -8 -6
-8 1 0 8 -37 12 -115 13 -86 2 -115 -1 -115 -11 0 -9 -3 -9 -12 0 -7 7 -35 12
-63 12 -28 0 -56 -5 -63 -12 -8 -8 -12 -8 -12 -1 0 7 -40 11 -115 12 -78 1
-115 -2 -115 -9 0 -6 -4 -9 -8 -6 -18 11 -117 14 -129 4 -9 -7 -13 -7 -13 1 0
6 -7 11 -15 11 -8 0 -15 -6 -15 -12 0 -9 -4 -8 -10 2 -9 13 -11 13 -20 0 -9
-13 -10 -13 -11 0 0 10 -3 8 -9 -5 -7 -17 -9 -17 -9 -3 -1 16 -9 17 -65 14
-36 -2 -69 -7 -75 -10 -5 -4 -12 -2 -16 4 -8 13 -60 13 -103 1 -20 -6 -32 -6
-32 0 0 14 -30 11 -31 -3 0 -10 -2 -10 -6 0 -7 17 -193 17 -193 0 0 -9 -3 -9
-12 0 -16 16 -110 16 -126 0 -9 -9 -12 -9 -12 0 0 9 -32 12 -115 12 -83 0
-115 -3 -115 -12 0 -9 -3 -9 -12 0 -16 16 -110 16 -126 0 -9 -9 -12 -9 -12 0
0 9 -32 12 -115 12 -83 0 -115 -3 -115 -12 0 -9 -3 -9 -12 0 -16 16 -110 16
-126 0 -9 -9 -12 -9 -12 0 0 9 -32 12 -115 12 -78 0 -115 -4 -115 -11 0 -8 -4
-8 -13 -1 -16 14 -367 14 -367 0 0 -5 -6 -6 -12 -1 -17 10 -168 11 -162 1 3
-4 0 -8 -5 -8 -6 0 -11 4 -11 9 0 5 -82 9 -185 9 -103 0 -182 -4 -179 -9 3 -5
0 -9 -5 -9 -6 0 -11 4 -11 9 0 14 -313 11 -322 -3 -5 -8 -8 -7 -8 2 0 19 -61
15 -76 -5 -7 -10 -16 -14 -20 -10 -5 4 -3 12 4 16 8 4 -51 9 -129 9 -103 1
-145 -2 -151 -11 -6 -9 -8 -9 -8 0 0 9 -32 12 -115 12 -68 0 -115 -4 -115 -10
0 -6 -6 -6 -18 0 -26 14 -122 12 -122 -2 0 -8 -4 -7 -9 2 -8 13 -12 13 -27 0
-10 -8 -15 -9 -11 -3 5 9 -21 12 -93 13 -64 1 -100 -2 -100 -9 0 -7 -6 -8 -19
0 -28 15 -121 13 -121 -2 0 -9 -3 -10 -8 -2 -9 14 -232 19 -232 5 0 -6 -12 -6
-32 0 -37 10 -97 9 -104 -3 -3 -4 -14 -3 -25 2 -14 8 -19 7 -19 -1 0 -6 -7 -8
-16 -5 -10 4 -13 2 -8 -7 5 -8 2 -7 -9 2 -14 11 -17 11 -17 0 0 -12 -2 -12 -9
0 -11 18 -141 29 -141 12 0 -8 -5 -9 -18 -2 -10 5 -37 8 -59 5 -85 -10 -112
-10 -106 -1 3 5 -34 6 -93 2 -115 -8 -125 -8 -182 1 -27 4 -48 2 -57 -6 -11
-9 -15 -9 -15 -1 0 15 -30 14 -31 -1 0 -10 -2 -10 -6 -1 -7 20 -43 16 -44 -4
-1 -17 -2 -17 -6 0 -4 17 -53 25 -53 9 0 -5 -20 -6 -45 -2 -27 4 -45 3 -45 -3
0 -5 -7 -4 -15 3 -10 8 -31 10 -66 5 -79 -11 -109 -12 -109 -3 0 4 -43 8 -95
7 -53 0 -95 -5 -95 -10 0 -6 -8 -6 -19 1 -27 14 -104 13 -119 -2 -9 -9 -12 -9
-12 0 0 7 -6 11 -13 9 -8 -1 -12 16 -13 61 -1 34 -4 65 -7 68 -3 3 -2 16 3 29
5 13 7 25 5 27 -4 4 -6 88 -4 168 0 25 1 79 1 120 -1 41 0 86 0 100 0 14 0 45
-1 70 0 25 0 56 1 70 1 22 0 115 -2 263 -4 241 -4 305 0 302 3 -2 4 25 2 58
-4 94 -2 239 4 269 3 14 0 29 -5 33 -6 3 -11 11 -11 16 0 6 4 8 9 5 8 -5 7 24
-3 117 -1 15 0 27 3 27 3 0 6 25 7 55 0 42 -3 55 -14 55 -11 0 -12 3 -4 13 6
7 11 74 11 167 1 85 2 190 4 232 1 46 -2 80 -8 83 -6 3 -6 7 1 10 14 7 7 83
-10 104 -8 11 -8 13 0 8 11 -6 12 0 17 128 1 38 18 71 30 59 3 -3 13 -2 23 4
11 6 25 5 41 -3 30 -16 59 -9 78 18 12 18 15 19 15 5 0 -10 9 -22 20 -28 11
-6 20 -7 20 -2 0 6 9 12 20 15 11 3 20 1 20 -5 0 -5 4 -7 9 -3 5 3 12 1 16 -5
4 -6 25 -7 53 -4 26 4 52 6 57 5 80 -9 125 -9 130 -1 4 6 11 7 17 4 7 -4 8 -2
4 4 -9 15 7 15 21 1 8 -8 20 -9 41 -1 20 7 34 6 48 -1 21 -12 114 -17 114 -6
0 10 60 17 65 8 3 -4 25 -7 50 -7 24 1 42 5 39 10 -3 4 0 8 5 8 6 0 11 -7 11
-15 0 -17 36 -21 42 -5 2 6 12 11 23 11 27 1 95 -10 106 -17 5 -3 9 -1 9 4 0
5 14 8 32 6 17 -2 37 1 44 7 8 7 14 7 19 -1 9 -14 68 -13 84 3 10 10 12 9 9
-3 -2 -10 6 -16 24 -18 16 -2 28 1 28 7 0 5 9 8 20 6 14 -3 18 0 13 8 -4 7 5
4 19 -5 18 -12 29 -14 33 -7 5 7 11 6 21 -2 11 -9 14 -9 14 1 0 10 13 11 53 5
106 -16 163 -13 151 7 -4 6 2 6 14 -1 12 -6 31 -7 50 -2 22 7 36 5 51 -5 14
-10 26 -12 38 -6 10 5 27 7 38 5 43 -10 112 -9 151 2 33 10 46 9 67 -2 20 -10
27 -10 27 -2 0 7 3 9 7 6 3 -4 13 -1 21 6 13 10 14 9 7 -2 -6 -11 -4 -13 7 -8
9 3 20 1 26 -5 6 -6 17 -6 28 -1 18 8 44 8 129 0 22 -2 55 2 72 9 28 11 35 11
47 -2 16 -16 36 -19 36 -5 0 5 9 11 20 14 11 3 18 1 15 -4 -3 -4 27 -7 67 -5
40 2 79 -1 85 -6 9 -7 15 -5 19 6 6 14 9 15 23 3 9 -7 22 -12 29 -11 6 1 23 2
37 3 18 1 25 7 25 21 0 11 5 20 11 20 5 0 7 -5 3 -11 -9 -16 13 -27 42 -21 14
2 21 9 17 16 -4 6 5 3 21 -7 20 -14 31 -16 41 -7 7 6 16 7 19 2 3 -5 24 -8 46
-6 22 2 40 -1 40 -7 0 -5 9 -9 21 -9 15 0 19 4 15 16 -5 14 -4 15 8 5 7 -6 32
-10 55 -9 31 2 41 7 41 21 0 9 4 17 10 17 5 0 7 -7 4 -15 -4 -9 0 -15 7 -15
11 0 11 -3 -1 -11 -12 -9 -11 -9 5 -4 11 4 28 7 38 7 12 -1 17 4 13 13 -3 9 0
12 9 8 8 -3 12 -10 8 -16 -4 -7 6 -8 30 -4 25 4 37 2 37 -6 0 -9 2 -9 8 -1 8
13 66 13 78 1 13 -13 36 -8 31 7 -6 15 16 12 39 -5 14 -11 55 -3 66 13 5 9 8
8 8 -6 0 -14 4 -16 18 -10 9 4 30 7 46 6 28 -1 28 -1 10 14 -10 9 -2 6 19 -6
33 -19 37 -20 37 -5 0 15 2 16 17 4 18 -16 63 -20 63 -6 0 5 7 6 16 3 9 -3 21
-3 27 1 16 9 69 4 84 -9 7 -5 18 -6 24 -2 9 5 7 11 -6 21 -25 17 -11 17 24 -1
29 -16 75 -11 65 6 -4 6 4 5 16 -2 13 -7 71 -14 129 -15 58 -2 116 -6 129 -10
16 -6 22 -3 22 9 0 9 -6 16 -14 16 -9 0 -14 9 -13 20 1 11 5 20 10 20 5 0 7
-6 4 -14z m163 4 c0 -5 -5 -10 -11 -10 -5 0 -7 5 -4 10 3 6 8 10 11 10 2 0 4
-4 4 -10z m220 0 c0 -5 -2 -10 -4 -10 -3 0 -8 5 -11 10 -3 6 -1 10 4 10 6 0
11 -4 11 -10z m160 0 c0 -5 -5 -10 -11 -10 -5 0 -7 5 -4 10 3 6 8 10 11 10 2
0 4 -4 4 -10z m220 0 c0 -5 -2 -10 -4 -10 -3 0 -8 5 -11 10 -3 6 -1 10 4 10 6
0 11 -4 11 -10z m160 0 c0 -5 -5 -10 -11 -10 -5 0 -7 5 -4 10 3 6 8 10 11 10
2 0 4 -4 4 -10z m161 -13 c-10 -9 -11 -8 -5 6 3 10 9 15 12 12 3 -3 0 -11 -7
-18z m79 19 c0 -9 -30 -14 -35 -6 -4 6 3 10 14 10 12 0 21 -2 21 -4z m140 -6
c0 -5 -5 -10 -11 -10 -5 0 -7 5 -4 10 3 6 8 10 11 10 2 0 4 -4 4 -10z m240 6
c0 -9 -30 -14 -35 -6 -4 6 3 10 14 10 12 0 21 -2 21 -4z m140 -6 c0 -5 -5 -10
-11 -10 -5 0 -7 5 -4 10 3 6 8 10 11 10 2 0 4 -4 4 -10z m240 6 c0 -9 -30 -14
-35 -6 -4 6 3 10 14 10 12 0 21 -2 21 -4z m140 -6 c0 -5 -8 -10 -17 -10 -15 0
-16 2 -3 10 19 12 20 12 20 0z m240 6 c0 -9 -30 -14 -35 -6 -4 6 3 10 14 10
12 0 21 -2 21 -4z m150 -6 c-8 -5 -22 -10 -30 -10 -13 0 -13 1 0 10 8 5 22 10
30 10 13 0 13 -1 0 -10z m1880 0 c0 -5 -5 -10 -11 -10 -5 0 -7 5 -4 10 3 6 8
10 11 10 2 0 4 -4 4 -10z m380 0 c0 -5 -5 -10 -11 -10 -5 0 -7 5 -4 10 3 6 8
10 11 10 2 0 4 -4 4 -10z m380 0 c0 -5 -5 -10 -11 -10 -5 0 -7 5 -4 10 3 6 8
10 11 10 2 0 4 -4 4 -10z m220 0 c0 -5 -2 -10 -4 -10 -3 0 -8 5 -11 10 -3 6
-1 10 4 10 6 0 11 -4 11 -10z m-8990 -4 c0 -2 -8 -10 -17 -17 -16 -13 -17 -12
-4 4 13 16 21 21 21 13z m375 -15 c-3 -6 -11 -11 -17 -11 -6 0 -6 6 2 15 14
17 26 13 15 -4z m812 13 c-3 -3 -12 -4 -19 -1 -8 3 -5 6 6 6 11 1 17 -2 13 -5z
m3743 2 c0 -2 -8 -10 -17 -17 -16 -13 -17 -12 -4 4 13 16 21 21 21 13z m380 0
c0 -2 -8 -10 -17 -17 -16 -13 -17 -12 -4 4 13 16 21 21 21 13z m380 0 c0 -2
-8 -10 -17 -17 -16 -13 -17 -12 -4 4 13 16 21 21 21 13z m1515 -34 c-3 -3 -11
0 -18 7 -9 10 -8 11 6 5 10 -3 15 -9 12 -12z m-7918 -28 c-3 -3 -12 -4 -19 -1
-8 3 -5 6 6 6 11 1 17 -2 13 -5z m9973 -194 c0 -5 -2 -10 -4 -10 -2 0 -12 -3
-22 -7 -16 -6 -17 -5 -4 10 17 19 30 22 30 7z m-9970 -60 c0 -5 -4 -10 -10
-10 -5 0 -10 5 -10 10 0 6 5 10 10 10 6 0 10 -4 10 -10z m-10 -24 c0 -3 -4 -8
-10 -11 -5 -3 -10 -1 -10 4 0 6 5 11 10 11 6 0 10 -2 10 -4z m9980 -296 c0 -5
-2 -10 -4 -10 -2 0 -12 -3 -22 -7 -16 -6 -17 -5 -4 10 17 19 30 22 30 7z
m-9970 -60 c0 -5 -4 -10 -10 -10 -5 0 -10 5 -10 10 0 6 5 10 10 10 6 0 10 -4
10 -10z m-10 -24 c0 -3 -4 -8 -10 -11 -5 -3 -10 -1 -10 4 0 6 5 11 10 11 6 0
10 -2 10 -4z m20 -240 c0 -2 -7 -6 -15 -10 -8 -3 -15 -1 -15 4 0 6 7 10 15 10
8 0 15 -2 15 -4z m9960 -56 c0 -5 -2 -10 -4 -10 -2 0 -12 -3 -22 -7 -16 -6
-17 -5 -4 10 17 19 30 22 30 7z m-9970 -60 c0 -5 -4 -10 -10 -10 -5 0 -10 5
-10 10 0 6 5 10 10 10 6 0 10 -4 10 -10z m-10 -24 c0 -3 -4 -8 -10 -11 -5 -3
-10 -1 -10 4 0 6 5 11 10 11 6 0 10 -2 10 -4z m9940 -236 c0 -5 -4 -10 -10
-10 -5 0 -10 5 -10 10 0 6 5 10 10 10 6 0 10 -4 10 -10z m-9920 -4 c0 -2 -7
-6 -15 -10 -8 -3 -15 -1 -15 4 0 6 7 10 15 10 8 0 15 -2 15 -4z m9960 -56 c0
-5 -4 -10 -10 -10 -5 0 -10 5 -10 10 0 6 5 10 10 10 6 0 10 -4 10 -10z m-9970
-60 c0 -5 -4 -10 -10 -10 -5 0 -10 5 -10 10 0 6 5 10 10 10 6 0 10 -4 10 -10z
m9930 -260 c0 -5 -5 -10 -11 -10 -5 0 -7 5 -4 10 3 6 8 10 11 10 2 0 4 -4 4
-10z m-9920 -4 c0 -2 -7 -6 -15 -10 -8 -3 -15 -1 -15 4 0 6 7 10 15 10 8 0 15
-2 15 -4z m9960 -56 c0 -5 -4 -10 -10 -10 -5 0 -10 5 -10 10 0 6 5 10 10 10 6
0 10 -4 10 -10z m-9970 -174 c0 -2 -7 -6 -15 -10 -8 -3 -15 -1 -15 4 0 6 7 10
15 10 8 0 15 -2 15 -4z m9930 -146 c0 -5 -5 -10 -11 -10 -5 0 -7 5 -4 10 3 6
8 10 11 10 2 0 4 -4 4 -10z m40 -60 c0 -5 -4 -10 -10 -10 -5 0 -10 5 -10 10 0
6 5 10 10 10 6 0 10 -4 10 -10z m-9970 -174 c0 -2 -7 -6 -15 -10 -8 -3 -15 -1
-15 4 0 6 7 10 15 10 8 0 15 -2 15 -4z m9930 -146 c0 -5 -5 -10 -11 -10 -5 0
-7 5 -4 10 3 6 8 10 11 10 2 0 4 -4 4 -10z m40 -60 c0 -5 -4 -10 -10 -10 -5 0
-10 5 -10 10 0 6 5 10 10 10 6 0 10 -4 10 -10z m-9976 -177 c-5 -5 -12 -12
-16 -18 -4 -6 -8 -2 -8 8 0 9 7 17 17 17 9 0 12 -3 7 -7z m2296 -63 c0 -5 -4
-10 -10 -10 -5 0 -10 5 -10 10 0 6 5 10 10 10 6 0 10 -4 10 -10z m380 0 c0 -5
-4 -10 -10 -10 -5 0 -10 5 -10 10 0 6 5 10 10 10 6 0 10 -4 10 -10z m760 0 c0
-5 -4 -10 -10 -10 -5 0 -10 5 -10 10 0 6 5 10 10 10 6 0 10 -4 10 -10z m380 0
c0 -5 -4 -10 -10 -10 -5 0 -10 5 -10 10 0 6 5 10 10 10 6 0 10 -4 10 -10z
m385 0 c-3 -5 -10 -10 -16 -10 -5 0 -9 5 -9 10 0 6 7 10 16 10 8 0 12 -4 9
-10z m3025 0 c0 -5 -4 -10 -10 -10 -5 0 -10 5 -10 10 0 6 5 10 10 10 6 0 10
-4 10 -10z m380 0 c0 -5 -4 -10 -10 -10 -5 0 -10 5 -10 10 0 6 5 10 10 10 6 0
10 -4 10 -10z m380 0 c0 -5 -4 -10 -10 -10 -5 0 -10 5 -10 10 0 6 5 10 10 10
6 0 10 -4 10 -10z m1145 0 c-3 -5 -10 -10 -16 -10 -5 0 -9 5 -9 10 0 6 7 10
16 10 8 0 12 -4 9 -10z m-8993 -32 c-8 -8 -9 -4 -5 13 4 13 8 18 11 10 2 -7
-1 -18 -6 -23z m125 17 c0 -8 -4 -15 -9 -15 -10 0 -11 14 -1 23 9 10 10 9 10
-8z m258 -12 c-5 -10 -7 -22 -6 -28 1 -5 -3 -5 -9 1 -9 9 -8 17 1 32 16 25 25
21 14 -5z m122 12 c0 -17 -13 -20 -21 -6 -4 5 0 12 6 14 7 3 13 6 14 6 0 1 1
-6 1 -14z m380 0 c0 -17 -13 -20 -21 -6 -4 5 0 12 6 14 7 3 13 6 14 6 0 1 1
-6 1 -14z m258 -12 c-5 -10 -7 -22 -6 -28 1 -5 -4 -4 -11 4 -10 11 -10 14 0
18 6 3 12 12 12 21 0 8 3 13 6 9 4 -3 3 -14 -1 -24z m1899 12 c3 -8 1 -15 -4
-15 -6 0 -10 7 -10 15 0 8 2 15 4 15 2 0 6 -7 10 -15z m2009 0 c-3 -9 -8 -14
-10 -11 -3 3 -2 9 2 15 9 16 15 13 8 -4z m380 0 c-3 -9 -8 -14 -10 -11 -3 3
-2 9 2 15 9 16 15 13 8 -4z m262 -12 c-5 -10 -7 -22 -6 -26 1 -5 -3 -6 -8 -3
-5 4 -5 16 2 30 13 28 24 27 12 -1z m122 12 c0 -17 -13 -20 -21 -6 -4 5 0 12
6 14 7 3 13 6 14 6 0 1 1 -6 1 -14z m258 -12 c-5 -10 -7 -22 -6 -26 1 -5 -3
-6 -8 -3 -5 4 -5 16 2 30 13 28 24 27 12 -1z m2267 -14 c-22 -25 -22 -24 -9
11 6 17 14 25 18 18 4 -6 -1 -19 -9 -29z m392 26 c3 -8 1 -15 -4 -15 -6 0 -10
7 -10 15 0 8 2 15 4 15 2 0 6 -7 10 -15z m380 0 c3 -8 1 -15 -4 -15 -6 0 -10
7 -10 15 0 8 2 15 4 15 2 0 6 -7 10 -15z m379 1 c3 -8 0 -17 -7 -19 -10 -4
-12 1 -9 14 6 23 9 24 16 5z m-8731 -19 c-7 -8 -8 -18 -4 -22 4 -5 1 -5 -5 -1
-10 5 -10 11 -1 26 7 11 14 17 17 15 2 -3 -1 -11 -7 -18z m318 13 c0 -5 -10
-10 -22 -10 -19 0 -20 2 -8 10 19 13 30 13 30 0z m185 -8 c-3 -3 -11 0 -18 7
-9 10 -8 11 6 5 10 -3 15 -9 12 -12z m195 8 c0 -5 -10 -10 -22 -10 -19 0 -20
2 -8 10 19 13 30 13 30 0z m185 -8 c-3 -3 -11 0 -18 7 -9 10 -8 11 6 5 10 -3
15 -9 12 -12z m195 8 c0 -5 -10 -10 -22 -10 -19 0 -20 2 -8 10 19 13 30 13 30
0z m380 0 c0 -5 -10 -10 -22 -10 -19 0 -20 2 -8 10 19 13 30 13 30 0z m185 -8
c-3 -3 -11 0 -18 7 -9 10 -8 11 6 5 10 -3 15 -9 12 -12z m195 8 c0 -5 -4 -10
-10 -10 -5 0 -10 5 -10 10 0 6 5 10 10 10 6 0 10 -4 10 -10z m65 0 c3 -5 1
-10 -4 -10 -6 0 -11 5 -11 10 0 6 2 10 4 10 3 0 8 -4 11 -10z m125 -6 c0 -2
-7 -4 -15 -4 -8 0 -15 4 -15 10 0 5 7 7 15 4 8 -4 15 -8 15 -10z m190 6 c0 -5
-4 -10 -10 -10 -5 0 -10 5 -10 10 0 6 5 10 10 10 6 0 10 -4 10 -10z m110 0 c0
-5 -5 -10 -11 -10 -5 0 -7 5 -4 10 3 6 8 10 11 10 2 0 4 -4 4 -10z m80 -6 c0
-2 -7 -4 -15 -4 -8 0 -15 4 -15 10 0 5 7 7 15 4 8 -4 15 -8 15 -10z m190 6 c0
-5 -4 -10 -10 -10 -5 0 -10 5 -10 10 0 6 5 10 10 10 6 0 10 -4 10 -10z m65 0
c3 -5 1 -10 -4 -10 -6 0 -11 5 -11 10 0 6 2 10 4 10 3 0 8 -4 11 -10z m110 0
c3 -5 1 -10 -4 -10 -6 0 -11 5 -11 10 0 6 2 10 4 10 3 0 8 -4 11 -10z m270 0
c3 -5 1 -10 -4 -10 -6 0 -11 5 -11 10 0 6 2 10 4 10 3 0 8 -4 11 -10z m110 0
c3 -5 2 -10 -4 -10 -5 0 -13 5 -16 10 -3 6 -2 10 4 10 5 0 13 -4 16 -10z m269
1 c3 -5 -1 -11 -9 -14 -9 -4 -12 -1 -8 9 6 16 10 17 17 5z m111 -1 c3 -5 1
-10 -4 -10 -6 0 -11 5 -11 10 0 6 2 10 4 10 3 0 8 -4 11 -10z m269 1 c3 -5 -1
-11 -9 -14 -9 -4 -12 -1 -8 9 6 16 10 17 17 5z m111 -1 c3 -5 1 -10 -4 -10 -6
0 -11 5 -11 10 0 6 2 10 4 10 3 0 8 -4 11 -10z m269 1 c3 -5 -1 -11 -9 -14 -9
-4 -12 -1 -8 9 6 16 10 17 17 5z m367 -14 c-10 -9 -11 -8 -5 6 3 10 9 15 12
12 3 -3 0 -11 -7 -18z m884 5 c-3 -3 -11 0 -18 7 -9 10 -8 11 6 5 10 -3 15 -9
12 -12z m195 8 c0 -5 -10 -10 -22 -10 -19 0 -20 2 -8 10 19 13 30 13 30 0z
m185 -8 c-3 -3 -11 0 -18 7 -9 10 -8 11 6 5 10 -3 15 -9 12 -12z m195 8 c0 -5
-10 -10 -22 -10 -19 0 -20 2 -8 10 19 13 30 13 30 0z m185 -8 c-3 -3 -11 0
-18 7 -9 10 -8 11 6 5 10 -3 15 -9 12 -12z m195 8 c0 -5 -10 -10 -22 -10 -19
0 -20 2 -8 10 19 13 30 13 30 0z m110 0 c0 -5 -5 -10 -11 -10 -5 0 -7 5 -4 10
3 6 8 10 11 10 2 0 4 -4 4 -10z m75 -8 c-3 -3 -11 0 -18 7 -9 10 -8 11 6 5 10
-3 15 -9 12 -12z m195 8 c0 -5 -10 -10 -22 -10 -19 0 -20 2 -8 10 19 13 30 13
30 0z m175 0 c3 -5 1 -10 -4 -10 -6 0 -11 5 -11 10 0 6 2 10 4 10 3 0 8 -4 11
-10z m205 0 c0 -5 -4 -10 -10 -10 -5 0 -10 5 -10 10 0 6 5 10 10 10 6 0 10 -4
10 -10z m65 0 c3 -5 1 -10 -4 -10 -6 0 -11 5 -11 10 0 6 2 10 4 10 3 0 8 -4
11 -10z m125 -6 c0 -2 -7 -4 -15 -4 -8 0 -15 4 -15 10 0 5 7 7 15 4 8 -4 15
-8 15 -10z m380 0 c0 -2 -7 -4 -15 -4 -8 0 -15 4 -15 10 0 5 7 7 15 4 8 -4 15
-8 15 -10z m365 6 c3 -5 1 -10 -4 -10 -6 0 -11 5 -11 10 0 6 2 10 4 10 3 0 8
-4 11 -10z m380 0 c3 -5 2 -10 -4 -10 -5 0 -13 5 -16 10 -3 6 -2 10 4 10 5 0
13 -4 16 -10z m380 0 c3 -5 1 -10 -4 -10 -6 0 -11 5 -11 10 0 6 2 10 4 10 3 0
8 -4 11 -10z m-8085 -15 c-10 -12 -8 -16 11 -24 16 -6 18 -10 8 -10 -25 -1
-41 23 -27 37 17 17 23 15 8 -3z m380 0 c-10 -12 -8 -16 11 -24 17 -7 19 -10
7 -10 -9 -1 -20 4 -23 9 -4 6 -12 7 -18 3 -7 -3 -3 3 7 15 21 24 36 31 16 7z
m381 1 c-10 -11 -8 -17 6 -25 10 -6 13 -11 6 -11 -6 0 -15 5 -18 10 -4 6 -12
7 -18 3 -7 -3 -3 3 7 15 21 24 36 31 17 8z m4169 -1 c-10 -12 -8 -16 11 -24
16 -6 18 -10 8 -10 -9 -1 -22 6 -30 15 -10 13 -10 17 2 25 20 13 23 11 9 -6z
m380 0 c-10 -12 -8 -16 11 -24 17 -7 19 -10 7 -10 -9 -1 -20 4 -23 9 -4 6 -12
7 -18 3 -7 -3 -3 3 7 15 21 24 36 31 16 7z m380 0 c-10 -12 -8 -16 11 -24 17
-7 19 -10 7 -10 -9 -1 -20 4 -23 9 -4 6 -12 7 -18 3 -7 -3 -3 3 7 15 21 24 36
31 16 7z m381 1 c-10 -11 -8 -17 6 -25 10 -6 13 -11 6 -11 -6 0 -15 5 -18 10
-4 6 -11 8 -16 5 -14 -9 -11 2 7 19 19 20 31 21 15 2z m-6751 -6 c0 -5 -2 -10
-4 -10 -3 0 -8 5 -11 10 -3 6 -1 10 4 10 6 0 11 -4 11 -10z m380 0 c0 -5 -2
-10 -4 -10 -3 0 -8 5 -11 10 -3 6 -1 10 4 10 6 0 11 -4 11 -10z m380 0 c0 -5
-2 -10 -4 -10 -3 0 -8 5 -11 10 -3 6 -1 10 4 10 6 0 11 -4 11 -10z m380 0 c0
-5 -2 -10 -4 -10 -3 0 -8 5 -11 10 -3 6 -1 10 4 10 6 0 11 -4 11 -10z m380 0
c0 -5 -2 -10 -4 -10 -3 0 -8 5 -11 10 -3 6 -1 10 4 10 6 0 11 -4 11 -10z m380
0 c0 -5 -2 -10 -4 -10 -3 0 -8 5 -11 10 -3 6 -1 10 4 10 6 0 11 -4 11 -10z
m3030 0 c0 -5 -2 -10 -4 -10 -3 0 -8 5 -11 10 -3 6 -1 10 4 10 6 0 11 -4 11
-10z m380 0 c0 -5 -2 -10 -4 -10 -3 0 -8 5 -11 10 -3 6 -1 10 4 10 6 0 11 -4
11 -10z m380 0 c0 -5 -2 -10 -4 -10 -3 0 -8 5 -11 10 -3 6 -1 10 4 10 6 0 11
-4 11 -10z m380 0 c0 -5 -2 -10 -4 -10 -3 0 -8 5 -11 10 -3 6 -1 10 4 10 6 0
11 -4 11 -10z m380 0 c0 -5 -2 -10 -4 -10 -3 0 -8 5 -11 10 -3 6 -1 10 4 10 6
0 11 -4 11 -10z m380 0 c0 -5 -2 -10 -4 -10 -3 0 -8 5 -11 10 -3 6 -1 10 4 10
6 0 11 -4 11 -10z m-7575 -20 c-3 -5 -12 -10 -18 -10 -7 0 -6 4 3 10 19 12 23
12 15 0z m380 0 c-3 -5 -12 -10 -18 -10 -7 0 -6 4 3 10 19 12 23 12 15 0z
m380 -2 c-11 -6 -23 -16 -27 -22 -5 -8 -8 -7 -8 1 0 12 28 32 45 32 6 0 1 -5
-10 -11z m385 7 c0 -2 -10 -9 -22 -15 -22 -11 -22 -10 -4 4 21 17 26 19 26 11z
m4165 -5 c-3 -5 -12 -10 -18 -10 -7 0 -6 4 3 10 19 12 23 12 15 0z m385 5 c0
-2 -10 -9 -22 -15 -22 -11 -22 -10 -4 4 21 17 26 19 26 11z m375 -7 c-11 -6
-23 -16 -27 -22 -5 -8 -8 -7 -8 1 0 12 28 32 45 32 6 0 1 -5 -10 -11z m385 7
c0 -2 -10 -9 -22 -15 -22 -11 -22 -10 -4 4 21 17 26 19 26 11z m-6149 -14 c-8
-5 -10 -14 -6 -22 6 -11 5 -11 -5 -2 -14 12 -6 33 13 33 8 0 7 -3 -2 -9z
m3475 0 c-4 -5 0 -12 6 -14 8 -3 6 -6 -4 -6 -18 -1 -24 10 -11 22 9 10 15 8 9
-2z m4169 -1 c-3 -5 -1 -10 6 -10 7 0 10 -3 6 -6 -9 -9 -28 6 -22 17 4 5 8 9
11 9 3 0 2 -4 -1 -10z m761 1 c-4 -5 0 -12 6 -14 8 -3 6 -6 -4 -6 -18 -1 -24
10 -11 22 9 10 15 8 9 -2z m-8661 -11 c3 -5 -1 -10 -10 -10 -9 0 -13 5 -10 10
3 6 8 10 10 10 2 0 7 -4 10 -10z m760 0 c-3 -5 -11 -10 -16 -10 -6 0 -7 5 -4
10 3 6 11 10 16 10 6 0 7 -4 4 -10z m375 0 c0 -5 -5 -10 -11 -10 -5 0 -7 5 -4
10 3 6 8 10 11 10 2 0 4 -4 4 -10z m380 0 c0 -5 -5 -10 -11 -10 -5 0 -7 5 -4
10 3 6 8 10 11 10 2 0 4 -4 4 -10z m380 0 c0 -5 -5 -10 -11 -10 -5 0 -7 5 -4
10 3 6 8 10 11 10 2 0 4 -4 4 -10z m1515 0 c3 -5 1 -10 -4 -10 -6 0 -11 5 -11
10 0 6 2 10 4 10 3 0 8 -4 11 -10z m380 0 c3 -5 1 -10 -4 -10 -6 0 -11 5 -11
10 0 6 2 10 4 10 3 0 8 -4 11 -10z m1900 0 c-3 -5 -11 -10 -16 -10 -6 0 -7 5
-4 10 3 6 11 10 16 10 6 0 7 -4 4 -10z m755 0 c0 -5 -5 -10 -11 -10 -5 0 -7 5
-4 10 3 6 8 10 11 10 2 0 4 -4 4 -10z m380 0 c0 -5 -5 -10 -11 -10 -5 0 -7 5
-4 10 3 6 8 10 11 10 2 0 4 -4 4 -10z m1904 -2 c-7 -10 -24 -10 -24 0 0 5 7 9
15 9 8 0 12 -4 9 -9z m371 2 c3 -5 1 -10 -4 -10 -6 0 -11 5 -11 10 0 6 2 10 4
10 3 0 8 -4 11 -10z m-5810 -18 c-3 -3 -11 0 -18 7 -9 10 -8 11 6 5 10 -3 15
-9 12 -12z m1642 12 c-3 -3 -12 -4 -19 -1 -8 3 -5 6 6 6 11 1 17 -2 13 -5z
m380 0 c-3 -3 -12 -4 -19 -1 -8 3 -5 6 6 6 11 1 17 -2 13 -5z m2528 -12 c-3
-3 -11 0 -18 7 -9 10 -8 11 6 5 10 -3 15 -9 12 -12z"/>
<path d="M461 2769 c-24 -9 -23 -10 26 -47 57 -42 83 -80 83 -122 0 -16 9 -52
20 -80 33 -84 44 -177 25 -229 -13 -37 -15 -121 -15 -561 0 -406 -3 -519 -13
-523 -6 -2 -26 4 -43 14 -17 10 -47 18 -67 17 -24 -1 -44 6 -58 17 -24 23 -52
11 -57 -24 -2 -11 -9 -21 -16 -21 -6 0 -19 -17 -29 -37 l-17 -38 30 -28 c49
-46 80 -33 80 33 0 20 6 29 21 33 29 8 59 -13 59 -40 0 -16 8 -23 30 -28 16
-4 34 -4 40 0 5 3 10 2 10 -2 0 -5 -9 -14 -21 -21 -14 -9 -18 -19 -14 -32 5
-17 2 -20 -22 -20 -16 0 -34 5 -41 12 -9 9 -12 6 -12 -13 0 -26 22 -65 49 -87
14 -12 11 -17 -26 -52 -48 -43 -52 -56 -23 -65 11 -3 20 -12 20 -18 0 -7 7
-22 15 -34 13 -19 20 -20 43 -12 38 13 102 -12 96 -38 -5 -23 14 -48 44 -57
18 -6 24 -2 31 17 6 14 19 31 29 39 13 8 23 31 27 61 l7 47 182 0 c247 0 497
11 518 21 9 5 38 9 63 9 53 0 104 21 138 56 12 13 28 24 35 24 8 0 42 28 76
62 111 113 112 114 170 307 14 48 15 59 2 105 -8 28 -21 77 -30 108 -18 71
-90 175 -155 223 -27 19 -54 35 -60 35 -6 0 -11 4 -11 8 0 14 -110 63 -174 77
-15 3 -39 13 -52 22 l-24 15 27 22 c15 11 35 28 44 36 9 8 25 22 35 31 40 33
64 69 116 171 28 56 31 70 32 162 1 112 -8 145 -60 213 -68 90 -153 149 -264
186 -118 39 -193 48 -380 48 -96 0 -191 0 -210 0 -19 0 -89 -5 -155 -10 -101
-8 -121 -7 -128 5 -9 16 -13 16 -46 3z m775 -154 c58 -32 98 -74 124 -132 16
-34 20 -64 20 -165 0 -124 -10 -175 -49 -256 -17 -36 -63 -92 -75 -92 -4 0
-14 -6 -22 -14 -8 -8 -39 -20 -70 -26 -58 -12 -217 -11 -230 2 -13 13 -15 567
-2 640 13 79 11 78 159 73 83 -3 104 -7 145 -30z m-116 -826 c210 -18 273 -41
372 -140 68 -68 75 -79 109 -174 21 -57 27 -229 8 -240 -6 -4 -8 -13 -5 -20 8
-21 -16 -97 -38 -123 -85 -100 -187 -140 -360 -141 -148 -2 -245 30 -268 88
-7 16 -12 161 -14 394 l-3 367 37 0 c20 0 93 -5 162 -11z m-410 -1029 c0 -19
-36 -47 -48 -36 -5 5 36 56 45 56 2 0 3 -9 3 -20z"/>
<path d="M7973 2656 c-28 -13 -29 -22 -3 -36 26 -14 25 -47 -2 -70 -22 -18
-22 -18 22 -19 48 -1 123 26 114 41 -3 5 0 16 7 24 10 13 10 17 -2 25 -8 5
-21 9 -30 9 -9 0 -24 9 -34 20 -20 22 -38 23 -72 6z"/>
<path d="M4257 2593 c-4 -3 -7 -18 -7 -32 0 -14 -9 -40 -19 -57 -10 -17 -22
-46 -26 -65 -4 -19 -11 -38 -15 -44 -4 -5 -10 -23 -13 -40 -10 -52 -35 -135
-55 -178 -30 -65 -50 -119 -57 -153 -6 -30 -4 -32 31 -39 34 -6 36 -8 21 -23
-9 -9 -31 -21 -48 -26 -18 -6 -35 -18 -39 -26 -19 -39 -31 -70 -49 -125 -28
-84 -51 -147 -59 -159 -7 -12 -24 -56 -48 -126 -8 -25 -19 -54 -24 -65 -22
-50 -51 -125 -66 -175 -9 -30 -21 -59 -25 -65 -5 -5 -9 -16 -9 -25 0 -8 -11
-37 -25 -65 -13 -27 -25 -58 -25 -67 0 -9 -4 -20 -10 -23 -5 -3 -14 -24 -20
-45 -11 -42 -70 -110 -95 -110 -8 0 -15 -5 -15 -11 0 -6 10 -10 23 -9 12 1 24
1 27 0 21 -7 290 -9 290 -1 0 5 -8 12 -18 15 -31 10 -44 43 -32 82 5 19 14 49
20 67 5 18 10 41 10 50 0 16 20 68 46 119 8 14 14 35 14 45 0 11 7 28 15 39 8
10 15 26 15 34 0 8 11 44 24 80 13 36 27 76 30 90 12 52 11 52 206 51 106 -1
188 3 194 8 7 6 21 8 32 5 15 -4 27 -27 49 -97 15 -51 34 -105 40 -122 7 -16
23 -64 35 -105 12 -41 37 -120 55 -175 38 -112 35 -129 -26 -161 -37 -19 -27
-40 12 -26 15 6 63 6 123 1 54 -5 112 -6 129 -1 18 5 48 5 67 0 40 -9 110 -1
110 13 0 5 -3 9 -8 9 -17 0 -102 90 -102 109 0 11 -7 37 -16 58 -55 126 -71
169 -109 298 -10 33 -24 74 -32 92 -7 17 -13 34 -13 38 0 3 -11 30 -24 58 -13
29 -31 77 -41 107 -10 30 -21 64 -25 75 -4 11 -15 47 -25 80 -9 33 -28 84 -41
112 -13 29 -27 67 -31 85 -3 18 -17 57 -30 87 -12 29 -23 60 -23 68 0 7 -7 24
-15 36 -8 12 -22 51 -31 87 -9 36 -27 87 -40 113 -13 27 -24 56 -24 65 0 17
-14 62 -39 129 -16 43 -16 43 -67 43 -28 0 -54 -3 -57 -7z m33 -509 c0 -17 48
-171 61 -197 23 -44 61 -157 68 -199 l8 -47 -31 -3 c-70 -7 -296 3 -296 14 0
5 6 24 14 41 7 18 21 55 29 82 20 62 37 111 53 150 6 17 15 45 19 62 3 18 11
35 16 38 5 4 9 15 9 25 0 11 5 30 12 44 9 20 14 23 25 15 7 -6 13 -18 13 -25z"/>
<path d="M7307 2589 c-55 -8 -128 -29 -164 -48 -10 -5 -34 -16 -53 -25 -61
-30 -94 -48 -150 -87 -53 -36 -140 -112 -140 -123 0 -2 -13 -20 -30 -38 -16
-18 -30 -38 -30 -45 0 -7 -4 -13 -8 -13 -9 0 -42 -70 -42 -88 0 -14 -31 -82
-46 -102 -6 -8 -23 -49 -37 -90 -44 -130 -44 -303 -2 -455 18 -66 84 -205 97
-205 4 0 8 -11 8 -25 0 -26 -11 -31 -80 -38 -29 -3 -28 -4 11 -5 37 -2 48 -6
52 -22 6 -22 -15 -56 -29 -47 -14 8 -38 -9 -30 -22 4 -6 16 -11 27 -11 20 0
26 -15 10 -24 -5 -3 -11 -17 -14 -32 -4 -23 -2 -25 19 -21 14 2 27 0 30 -4 3
-5 23 -6 44 -3 32 5 41 3 46 -11 5 -12 1 -23 -11 -31 -10 -8 -15 -17 -11 -21
4 -4 15 2 24 13 20 25 78 39 85 21 3 -9 9 -9 26 1 30 18 40 15 52 -15 7 -18
13 -23 20 -16 7 7 25 3 57 -12 26 -13 67 -29 92 -36 25 -8 52 -21 60 -29 47
-47 341 -59 495 -21 67 16 144 47 163 64 10 10 24 17 30 17 6 0 25 13 42 30
17 16 35 30 40 30 4 0 26 18 47 39 149 153 203 212 203 223 0 7 9 27 20 43 11
17 20 36 20 43 0 8 6 28 14 45 26 60 29 72 47 187 25 158 24 258 -2 345 -12
39 -24 86 -26 105 -3 19 -12 44 -19 55 -8 11 -14 27 -14 37 0 9 -6 23 -14 30
-7 8 -21 30 -31 48 -10 19 -21 37 -25 40 -3 3 -20 25 -37 50 -17 25 -49 56
-72 70 -22 14 -41 28 -41 33 0 4 -11 7 -25 7 -16 0 -25 6 -25 15 0 9 -10 15
-26 15 -20 0 -24 4 -19 19 5 16 2 18 -16 14 -18 -5 -21 -3 -16 10 4 12 0 18
-16 22 -81 18 -108 25 -157 40 -30 9 -71 20 -90 24 -19 5 -62 16 -95 25 -63
17 -144 19 -238 5z m237 -124 c92 -16 182 -55 229 -99 15 -14 32 -26 38 -26 5
0 9 -3 9 -7 0 -5 17 -27 38 -49 60 -68 66 -76 98 -144 39 -82 50 -113 63 -175
6 -27 18 -78 26 -113 11 -46 15 -122 15 -275 l0 -212 -40 -45 c-22 -25 -40
-51 -40 -58 0 -17 -82 -116 -150 -182 -41 -39 -72 -59 -106 -69 -27 -8 -62
-20 -79 -27 -62 -25 -177 -36 -256 -23 -72 12 -170 50 -197 76 -7 7 -18 13
-23 13 -16 0 -10 29 11 50 29 29 18 38 -36 32 -42 -4 -47 -3 -40 13 4 11 0 22
-11 31 -17 13 -17 13 0 14 18 0 25 20 7 20 -7 0 -7 6 0 19 5 11 10 31 10 44 0
23 -2 24 -47 19 -27 -3 -49 -9 -51 -13 -7 -17 -20 -8 -28 19 -4 15 -6 31 -5
36 1 4 -10 18 -23 31 -65 60 -116 369 -87 522 5 26 15 77 22 113 12 67 16 77
64 170 32 61 97 153 134 188 26 24 71 47 181 93 78 32 148 36 274 14z"/>
<path d="M7113 1393 c-7 -2 -13 -9 -13 -15 0 -14 43 -6 48 10 4 12 -12 15 -35
5z"/>
<path d="M3265 2581 c-6 -5 -27 -18 -48 -29 -34 -18 -41 -18 -78 -5 -31 10
-50 11 -73 4 -30 -10 -666 -18 -980 -12 -119 2 -147 0 -144 -11 3 -7 14 -14
25 -16 26 -4 102 -76 126 -119 31 -57 43 -314 46 -1029 1 -199 -1 -250 -15
-290 -9 -27 -22 -56 -30 -65 -8 -8 -14 -18 -14 -22 0 -8 -76 -85 -114 -114
-21 -17 -25 -24 -14 -28 20 -8 802 1 859 10 29 4 55 3 68 -4 12 -7 62 -11 119
-10 53 1 154 1 223 -1 l125 -2 40 54 c22 29 48 70 59 91 11 20 23 37 27 37 5
0 8 7 8 15 0 8 4 15 8 15 14 0 42 69 42 105 0 29 -4 35 -22 37 -44 3 -69 -3
-90 -20 -50 -41 -125 -107 -143 -127 -25 -28 -89 -67 -138 -83 -51 -18 -341
-20 -432 -4 -38 7 -86 20 -105 29 -43 21 -90 62 -90 80 0 7 -4 13 -9 13 -5 0
-17 22 -26 49 -14 42 -15 85 -11 285 3 130 8 241 11 246 8 13 303 11 328 -2
11 -6 17 -21 17 -44 0 -19 4 -43 9 -53 9 -15 6 -17 -22 -14 -19 2 -26 0 -17
-4 35 -18 60 -39 60 -49 0 -7 8 -10 18 -8 9 2 24 0 32 -5 12 -8 12 -13 2 -23
-18 -18 -15 -26 18 -43 19 -10 58 -15 118 -15 91 0 112 8 112 42 0 10 4 18 9
18 5 0 11 8 14 19 2 10 16 21 31 25 15 4 35 15 45 25 16 16 17 24 7 64 -6 25
-19 54 -28 64 -14 15 -18 42 -20 128 l-3 110 -37 3 c-30 3 -43 -2 -66 -25 -47
-48 -59 -54 -134 -74 -60 -15 -110 -19 -285 -19 -196 0 -213 1 -214 18 -1 9
-3 148 -5 308 -3 280 -2 292 17 313 22 24 13 23 309 23 102 0 221 -4 266 -9
106 -11 133 -30 212 -150 46 -69 53 -50 50 138 -3 156 -4 164 -23 167 -11 1
-25 -1 -30 -7z m-285 -961 c-27 -20 -36 -19 -27 5 4 8 17 15 29 15 l23 0 -25
-20z m-40 -91 c0 -10 -8 -23 -19 -28 -14 -8 -23 -5 -41 14 -13 14 -18 25 -11
25 7 0 19 7 28 15 18 19 43 4 43 -26z m160 -3 c0 -19 6 -37 13 -39 6 -3 2 -6
-10 -6 -13 -1 -23 -5 -23 -11 0 -7 -72 -8 -117 0 -9 1 34 40 44 40 23 0 63 23
63 37 0 7 7 13 15 13 10 0 15 -10 15 -34z"/>
<path d="M5765 2570 c-49 -10 -114 -28 -144 -40 -64 -25 -165 -79 -169 -91 -2
-5 -9 -9 -15 -9 -22 0 -180 -171 -213 -230 -10 -19 -22 -37 -25 -40 -11 -9
-72 -143 -81 -180 -48 -185 -48 -339 0 -521 8 -33 70 -163 103 -218 71 -117
258 -274 372 -311 20 -6 42 -20 47 -30 6 -11 17 -16 29 -13 10 3 22 0 25 -6 4
-6 20 -8 36 -4 22 4 31 1 35 -11 15 -47 18 -52 22 -35 5 21 38 14 56 -11 16
-22 76 -42 132 -42 40 -1 45 -4 45 -25 0 -12 5 -23 10 -23 6 0 10 11 10 23 0
29 29 57 58 57 22 0 73 20 82 31 12 16 118 82 150 94 108 40 165 101 220 238
19 49 21 60 9 68 -32 20 -60 9 -111 -47 -70 -74 -137 -118 -253 -164 -85 -33
-293 -44 -375 -19 -67 20 -148 71 -209 130 -66 65 -149 175 -157 206 -4 13
-10 23 -15 23 -5 0 -9 6 -9 13 0 7 -8 29 -18 48 -32 62 -62 226 -62 334 0 108
30 272 62 334 10 19 18 41 18 48 0 7 3 13 8 13 4 0 13 14 21 31 15 35 105 129
166 175 121 92 299 125 470 89 103 -22 185 -51 185 -66 0 -5 12 -15 28 -23 15
-8 43 -28 62 -45 19 -17 38 -31 43 -31 4 0 7 -5 7 -10 0 -6 12 -23 28 -39 15
-15 33 -36 39 -47 10 -15 12 1 8 91 -2 61 -6 126 -9 145 -2 19 -5 43 -5 52 -1
9 -8 24 -16 32 -9 9 -15 21 -14 28 7 53 -13 63 -36 18 -18 -36 -48 -39 -154
-15 -216 47 -353 54 -496 25z"/>
<path d="M8410 2580 c0 -5 9 -14 21 -20 28 -15 82 -104 102 -167 15 -46 16
-90 11 -370 -3 -175 -5 -330 -4 -345 1 -34 2 -148 2 -283 0 -55 0 -143 0 -196
0 -53 -5 -137 -12 -185 -12 -82 -16 -92 -49 -124 -20 -19 -45 -40 -56 -47 -17
-10 -6 -12 60 -12 45 -1 85 -5 91 -11 5 -5 27 -10 49 -11 22 -1 45 -6 52 -11
6 -5 20 -8 30 -7 26 3 53 -11 53 -27 0 -22 25 -16 54 13 48 48 50 60 13 74
-44 15 -73 60 -96 145 -17 59 -20 117 -26 394 -9 520 -7 710 9 710 6 0 23 -18
38 -39 26 -36 44 -58 116 -139 17 -20 39 -51 47 -68 8 -16 26 -42 40 -58 14
-15 25 -30 25 -33 0 -3 10 -15 23 -27 12 -11 39 -46 59 -76 21 -30 55 -75 77
-99 22 -24 68 -84 103 -134 35 -49 80 -107 101 -128 20 -21 37 -44 37 -49 0
-5 5 -10 10 -10 6 0 15 -11 20 -25 5 -14 14 -25 20 -25 5 0 10 -7 10 -15 0 -8
4 -15 9 -15 5 0 11 -8 15 -17 8 -27 27 -54 83 -117 9 -11 16 -32 16 -47 0 -15
3 -28 6 -27 20 2 31 -4 31 -17 0 -8 5 -15 10 -15 6 0 10 -7 10 -15 0 -8 4 -15
9 -15 5 0 36 -25 67 -55 40 -38 66 -55 84 -55 l26 0 -4 142 c-3 151 -3 160 -2
413 0 88 0 169 0 180 0 11 1 216 3 456 3 388 5 438 20 460 9 13 17 31 17 39 0
19 23 52 65 91 l29 29 -214 -1 c-171 0 -211 -3 -196 -12 19 -12 42 -34 61 -59
10 -13 27 -61 43 -129 6 -21 5 -57 -1 -90 -7 -41 -6 -68 5 -109 8 -33 11 -69
7 -89 -4 -19 -3 -45 2 -58 5 -13 6 -83 3 -156 -3 -72 -5 -139 -4 -147 4 -67 1
-431 -5 -439 -6 -11 -92 84 -130 144 -10 17 -45 64 -78 105 -33 41 -62 81 -65
90 -6 17 -101 148 -146 201 -17 20 -51 59 -75 88 -24 28 -56 71 -71 94 -22 36
-78 114 -108 152 -4 6 -11 17 -14 25 -3 8 -36 50 -71 93 -36 42 -71 91 -79
107 -7 17 -16 30 -20 30 -4 0 -18 17 -32 38 -13 20 -42 56 -65 80 l-41 42
-115 0 c-67 0 -115 -4 -115 -10z"/>
<path d="M3390 2421 c0 -6 5 -13 10 -16 6 -3 10 1 10 9 0 9 -4 16 -10 16 -5 0
-10 -4 -10 -9z"/>
<path d="M3025 2330 c3 -5 17 -10 31 -10 13 0 24 5 24 10 0 6 -14 10 -31 10
-17 0 -28 -4 -24 -10z"/>
<path d="M2770 1309 c0 -5 5 -7 10 -4 6 3 10 8 10 11 0 2 -4 4 -10 4 -5 0 -10
-5 -10 -11z"/>
<path d="M6580 1095 c0 -9 5 -15 11 -13 6 2 11 8 11 13 0 5 -5 11 -11 13 -6 2
-11 -4 -11 -13z"/>
<path d="M320 970 c0 -19 6 -33 16 -37 25 -9 37 11 23 40 -17 37 -39 35 -39
-3z"/>
<path d="M7460 594 c-45 -16 -63 -32 -81 -73 -17 -38 -18 -49 -7 -80 7 -20 11
-41 10 -48 -4 -18 63 -43 115 -43 50 0 88 21 109 61 27 53 11 135 -31 163 -26
17 -91 28 -115 20z m89 -36 c28 -29 31 -38 31 -95 0 -61 -1 -64 -32 -83 -46
-28 -70 -25 -104 13 -25 28 -29 40 -29 90 0 53 3 61 30 83 40 32 67 30 104 -8z"/>
<path d="M9305 592 c-34 -12 -50 -26 -69 -63 -18 -34 -18 -41 -3 -133 5 -25
61 -48 120 -48 39 0 54 5 76 26 58 56 58 155 0 198 -27 20 -94 30 -124 20z
m78 -14 c15 -7 27 -18 27 -25 0 -6 5 -13 12 -15 6 -2 13 -31 16 -64 4 -58 3
-62 -28 -87 -42 -36 -74 -35 -110 4 -52 57 -47 153 8 184 34 18 41 18 75 3z"/>
<path d="M1098 577 c-28 -22 -32 -60 -8 -90 12 -15 26 -27 31 -27 16 0 59 -51
59 -69 0 -43 -47 -53 -88 -20 -24 18 -27 19 -30 4 -9 -40 47 -58 105 -33 68
30 70 71 6 127 -26 22 -51 41 -56 41 -5 0 -7 12 -5 28 3 23 8 27 41 30 26 2
39 -1 43 -12 9 -24 26 -19 22 7 -3 19 -10 22 -53 24 -29 2 -57 -2 -67 -10z"/>
<path d="M1297 468 c2 -110 4 -123 20 -126 17 -3 18 7 18 123 0 118 -1 125
-20 125 -19 0 -20 -6 -18 -122z"/>
<path d="M1424 574 c3 -9 6 -65 6 -125 0 -92 2 -109 16 -109 13 0 14 12 9 85
-5 53 -3 85 3 85 5 0 22 -17 38 -37 15 -21 32 -39 36 -41 4 -2 8 -10 8 -18 0
-8 4 -14 8 -14 5 0 15 -11 22 -25 7 -14 19 -25 27 -25 10 0 13 24 13 104 0 57
3 111 6 120 4 11 0 16 -12 16 -17 0 -19 -8 -15 -85 3 -91 -6 -106 -36 -57 -9
15 -22 32 -28 37 -6 6 -26 31 -44 58 -30 44 -71 67 -57 31z"/>
<path d="M1982 570 c-36 -34 -28 -60 35 -116 56 -50 57 -52 44 -78 -16 -30
-41 -33 -77 -10 -28 19 -43 11 -28 -14 28 -43 145 -7 152 47 4 22 -30 61 -85
98 -15 10 -23 25 -23 44 0 27 3 29 40 29 26 0 42 -6 48 -16 11 -20 25 -3 16
20 -10 25 -94 22 -122 -4z"/>
<path d="M2193 564 c-13 -14 -23 -31 -23 -39 0 -16 38 -65 51 -65 6 0 23 -14
39 -31 24 -27 27 -35 18 -55 -14 -30 -50 -31 -86 -3 -24 18 -27 19 -30 4 -9
-40 47 -58 105 -33 78 35 66 100 -29 156 -22 13 -28 23 -26 42 3 22 9 25 46
28 35 3 42 0 42 -14 0 -14 3 -15 11 -7 24 24 2 43 -48 43 -39 0 -52 -5 -70
-26z"/>
<path d="M2798 478 c3 -121 6 -138 21 -138 6 0 8 32 4 85 -3 50 -2 85 3 85 12
0 64 -58 64 -71 0 -5 5 -9 10 -9 6 0 10 -7 10 -15 0 -8 5 -15 10 -15 6 0 16
-11 22 -25 6 -14 17 -25 25 -25 10 0 13 24 13 104 0 57 3 111 6 120 4 11 0 16
-12 16 -17 0 -19 -8 -15 -85 3 -95 -5 -105 -41 -52 -54 79 -101 137 -111 137
-9 0 -11 -32 -9 -112z"/>
<path d="M3375 568 c3 -13 7 -68 8 -123 3 -90 6 -100 23 -103 18 -3 19 5 19
123 l0 125 -28 0 c-23 0 -27 -3 -22 -22z"/>
<path d="M3515 573 c4 -10 6 -64 5 -121 -1 -85 2 -103 15 -108 9 -4 17 -5 19
-3 2 2 -2 39 -7 82 -6 42 -8 80 -5 83 7 7 48 -18 48 -28 0 -5 7 -16 15 -25 37
-43 65 -82 65 -92 0 -6 7 -11 15 -11 12 0 15 18 15 104 0 57 3 111 6 120 4 11
0 16 -12 16 -17 0 -19 -8 -15 -86 3 -85 3 -86 -18 -75 -12 7 -21 17 -21 24 0
7 -11 24 -25 39 -14 15 -25 29 -25 32 0 2 -12 18 -27 35 -30 34 -60 42 -48 14z"/>
<path d="M4596 468 c2 -115 3 -123 23 -126 20 -3 20 1 18 122 -2 121 -3 126
-23 126 -20 0 -21 -4 -18 -122z"/>
<path d="M4725 468 c0 -103 3 -123 16 -126 13 -2 15 9 11 83 -2 47 -1 85 3 85
11 0 59 -55 97 -112 51 -74 58 -66 58 72 0 99 -3 120 -15 120 -11 0 -15 -19
-17 -86 l-3 -85 -63 85 c-35 47 -69 86 -75 86 -9 0 -12 -36 -12 -122z"/>
<path d="M5521 576 c-7 -8 -15 -30 -18 -50 -3 -20 -9 -36 -13 -36 -4 0 -12
-17 -18 -37 -6 -21 -15 -53 -20 -70 -9 -27 -8 -33 4 -33 8 0 14 10 14 23 0 36
27 67 59 67 25 0 30 -5 41 -45 14 -48 26 -63 41 -48 9 9 4 33 -30 123 -12 30
-21 62 -21 70 0 8 -7 23 -14 33 -11 15 -15 15 -25 3z m29 -108 c0 -5 -11 -8
-25 -8 -28 0 -29 3 -14 31 10 20 11 20 24 2 8 -10 15 -21 15 -25z"/>
<path d="M5707 468 c2 -98 5 -124 16 -126 12 -3 14 11 10 82 -4 59 -2 86 5 86
6 0 37 -36 69 -80 32 -44 61 -80 65 -80 5 0 8 10 8 23 1 69 11 200 15 208 4 5
-3 9 -14 9 -19 0 -20 -7 -23 -87 l-3 -86 -64 86 c-36 48 -70 87 -75 87 -7 0
-10 -42 -9 -122z"/>
<path d="M5987 468 c1 -79 5 -124 12 -126 7 -2 11 24 11 82 0 47 4 86 8 86 5
0 34 -36 66 -80 31 -44 61 -80 67 -80 5 0 9 45 9 104 0 57 3 111 6 120 4 11 0
16 -12 16 -17 0 -19 -8 -15 -87 3 -85 3 -87 -15 -71 -11 9 -41 48 -69 87 -27
39 -54 71 -60 71 -6 0 -9 -46 -8 -122z"/>
<path d="M6565 533 c-11 -32 -23 -62 -27 -67 -4 -6 -8 -18 -8 -28 0 -10 -7
-30 -16 -43 -9 -14 -13 -32 -10 -41 7 -19 26 -9 26 15 0 9 6 29 13 44 23 51
87 28 87 -32 0 -21 35 -47 44 -33 5 8 -15 76 -34 117 -5 11 -15 42 -23 69 -8
28 -18 51 -24 53 -5 2 -18 -22 -28 -54z m45 -65 c0 -4 -11 -8 -25 -8 -28 0
-30 3 -14 32 11 21 12 21 25 3 8 -10 14 -22 14 -27z"/>
<path d="M6765 471 l0 -119 37 -4 37 -3 -20 21 c-19 20 -21 32 -17 123 3 96 2
101 -17 101 -19 0 -20 -7 -20 -119z"/>
<path d="M7702 487 c-6 -57 -14 -110 -17 -119 -4 -9 0 -18 9 -21 13 -5 16 3
16 47 0 30 3 61 6 70 8 20 24 21 24 1 0 -8 6 -29 14 -47 8 -18 17 -42 21 -53
8 -26 20 -8 41 63 8 28 20 52 25 52 5 0 9 -29 9 -65 0 -57 2 -65 19 -65 16 0
18 5 10 44 -4 24 -9 78 -10 120 -3 67 -5 76 -22 76 -12 0 -17 -6 -16 -17 4
-31 -33 -143 -47 -143 -8 0 -14 9 -14 20 0 10 -6 34 -14 52 -8 18 -17 45 -21
61 -11 52 -22 27 -33 -76z"/>
<path d="M7985 570 c9 -28 10 -181 1 -208 -7 -21 -5 -23 16 -20 20 3 23 9 26
54 l3 51 40 6 c47 6 68 29 69 74 0 45 -30 63 -103 63 -53 0 -58 -2 -52 -20z
m111 -17 c20 -27 17 -50 -12 -72 -44 -34 -54 -28 -54 34 0 53 1 55 26 55 15 0
33 -8 40 -17z"/>
<path d="M8465 580 c-4 -6 7 -10 29 -10 41 0 40 6 40 -130 1 -82 3 -95 19 -98
15 -3 17 7 17 112 l0 116 39 0 c29 0 41 -5 45 -17 3 -11 4 -7 3 7 -2 24 -4 25
-94 28 -55 2 -94 -1 -98 -8z"/>
<path d="M8737 468 c1 -107 4 -123 18 -123 15 0 17 16 18 123 2 116 1 122 -18
122 -19 0 -20 -6 -18 -122z"/>
<path d="M8840 581 c0 -5 17 -11 38 -13 l37 -3 1 -110 c1 -94 4 -110 18 -113
14 -3 16 10 16 112 l0 116 39 0 c29 0 41 -5 45 -17 3 -11 4 -7 3 7 -2 25 -3
25 -99 28 -59 2 -98 -1 -98 -7z"/>
<path d="M9112 468 c3 -112 5 -123 21 -123 17 0 19 11 20 123 2 121 2 122 -21
122 -22 0 -23 -1 -20 -122z"/>
<path d="M9557 468 c2 -117 3 -123 23 -126 19 -3 20 -1 11 17 -13 24 -15 151
-2 151 5 0 35 -36 68 -80 32 -43 61 -79 66 -80 4 0 7 42 8 93 0 50 3 104 5
120 4 20 1 27 -11 27 -14 0 -16 -11 -11 -80 5 -61 3 -80 -7 -80 -7 0 -39 36
-71 80 -32 44 -63 80 -69 80 -9 0 -11 -36 -10 -122z"/>
<path d="M605 573 c-6 -2 -9 -39 -7 -93 3 -81 2 -90 -15 -91 -10 0 -13 -3 -7
-5 7 -3 10 -13 7 -23 -7 -27 4 -30 76 -20 68 10 101 30 101 61 0 28 -18 58
-35 58 -18 0 -19 14 -4 42 15 28 -3 68 -31 68 -18 0 -19 -3 -10 -21 18 -32 4
-71 -23 -67 -17 2 -23 11 -25 37 -2 19 2 37 8 41 13 8 -17 19 -35 13z m97
-130 c10 -9 18 -26 18 -39 0 -47 -59 -73 -80 -35 -11 22 -14 74 -3 84 12 12
46 7 65 -10z"/>
<path d="M4325 462 c3 -89 7 -117 17 -117 9 0 14 17 16 53 2 28 6 52 10 52 15
0 30 -16 46 -47 17 -34 51 -63 74 -63 10 0 9 4 -3 17 -9 9 -28 34 -41 55 -22
35 -23 40 -9 54 16 17 20 71 6 93 -5 8 -31 15 -65 17 l-55 3 4 -117z m78 88
c31 -37 16 -90 -25 -90 -15 0 -18 8 -18 48 0 66 12 78 43 42z"/>
<path d="M810 561 c0 -6 5 -13 10 -16 6 -3 10 -40 10 -81 0 -42 4 -83 10 -93
20 -38 122 -36 135 3 4 11 11 60 14 109 5 73 4 87 -9 87 -12 0 -15 -15 -12
-87 2 -92 -5 -115 -43 -126 -11 -3 -29 0 -40 9 -17 12 -19 27 -20 109 l0 95
-27 0 c-16 0 -28 -4 -28 -9z"/>
<path d="M1698 460 l-3 -110 44 0 c42 0 43 1 28 18 -10 10 -17 33 -17 51 0 41
26 53 51 23 20 -25 32 -27 47 -9 19 23 -4 42 -50 42 l-43 0 0 48 c0 44 -1 47
-27 47 l-27 0 -3 -110z"/>
<path d="M1820 563 c8 -3 21 -10 28 -16 8 -7 12 -5 12 7 0 11 -8 16 -27 15
-16 0 -22 -3 -13 -6z"/>
<path d="M2535 460 l0 -110 45 0 c43 0 44 0 22 16 -15 11 -22 25 -22 50 0 44
23 54 55 24 19 -18 27 -21 39 -11 8 6 12 20 9 30 -4 16 -14 19 -51 18 l-47 -2
-3 38 c-3 31 1 39 20 46 19 8 16 10 -22 10 l-45 1 0 -110z"/>
<path d="M2665 556 c20 -14 35 -12 35 5 0 5 -12 9 -27 9 -26 0 -26 -1 -8 -14z"/>
<path d="M3109 553 c-40 -24 -62 -69 -56 -109 8 -46 59 -94 100 -94 l31 0 -41
27 c-33 21 -42 33 -45 62 -7 56 2 81 36 102 37 23 74 24 100 4 27 -21 46 -19
46 5 0 18 -7 20 -72 20 -50 0 -81 -6 -99 -17z"/>
<path d="M3784 553 c12 -44 17 -171 7 -178 -24 -14 -8 -25 37 -24 46 0 46 1
25 16 -31 21 -32 79 -3 88 14 5 26 0 38 -15 21 -26 52 -18 52 15 0 21 -4 23
-52 21 l-53 -1 0 40 c0 33 4 40 25 46 18 5 10 7 -28 8 -46 1 -53 -1 -48 -16z"/>
<path d="M3901 566 c2 -2 14 -9 27 -15 18 -10 22 -9 22 4 0 10 -9 15 -27 15
-14 0 -24 -2 -22 -4z"/>
<path d="M4053 556 c9 -22 10 -169 2 -188 -6 -16 -1 -18 41 -17 48 0 48 1 27
16 -31 21 -32 79 -3 88 14 5 26 0 38 -15 21 -26 52 -18 52 15 0 21 -4 23 -52
21 l-53 -1 0 40 c0 33 4 40 25 46 18 5 10 7 -29 8 -42 1 -52 -2 -48 -13z"/>
<path d="M4180 560 c20 -13 40 -13 40 0 0 6 -12 10 -27 10 -22 0 -25 -2 -13
-10z"/>
<path d="M5021 540 c-16 -17 -33 -40 -36 -51 -19 -58 35 -139 92 -139 l28 0
-29 19 c-74 49 -75 153 -2 179 37 14 76 16 76 5 0 -11 48 -32 55 -25 3 3 5 14
5 24 0 16 -9 18 -79 18 -75 0 -81 -2 -110 -30z"/>
<path d="M6248 558 c7 -7 12 -44 12 -92 1 -100 11 -117 73 -119 74 -3 87 16
87 130 0 72 -3 93 -14 93 -10 0 -14 -21 -15 -92 -1 -70 -5 -96 -18 -110 -21
-23 -34 -23 -62 1 -21 18 -22 27 -19 110 l3 91 -29 0 c-23 0 -27 -3 -18 -12z"/>
<path d="M7178 553 c-16 -10 -28 -21 -28 -26 0 -5 -7 -15 -15 -23 -26 -26 -18
-75 18 -118 28 -33 39 -39 75 -40 31 0 48 5 63 21 l22 22 -39 -14 c-31 -10
-45 -11 -69 -1 -55 23 -65 139 -13 167 12 7 39 9 65 5 33 -4 44 -3 41 7 -7 19
-89 19 -120 0z"/>
<path d="M8218 460 l-3 -110 43 0 c40 0 42 1 27 16 -18 19 -17 85 2 91 6 2 21
-5 33 -17 26 -26 53 -19 48 12 -3 21 -8 23 -50 20 l-48 -4 0 45 c0 39 3 46 23
50 12 2 1 5 -25 6 l-47 1 -3 -110z"/>
<path d="M8345 560 c28 -12 45 -12 45 0 0 6 -15 10 -32 9 -28 0 -30 -2 -13 -9z"/>
<path d="M3239 453 c-1 -5 0 -25 1 -45 1 -33 -2 -38 -27 -44 l-28 -7 29 -8
c39 -11 66 5 66 39 0 15 3 37 6 50 5 19 2 22 -20 22 -14 0 -26 -3 -27 -7z"/>
<path d="M5162 451 c-10 -6 -10 -10 3 -21 26 -22 18 -50 -20 -66 -19 -8 -35
-15 -35 -17 0 -6 76 -1 88 6 6 5 12 23 12 42 0 19 5 37 11 41 8 4 7 9 -2 15
-18 11 -40 11 -57 0z"/>
<path d="M6881 370 c-22 -19 -23 -20 -2 -20 11 0 25 9 31 20 13 25 2 25 -29 0z"/>
<path d="M8379 371 c-19 -16 -20 -20 -8 -21 17 0 45 27 37 35 -3 3 -16 -3 -29
-14z"/>
<path d="M1850 365 c-10 -12 -9 -15 8 -15 11 0 22 7 26 15 3 9 0 15 -8 15 -7
0 -19 -7 -26 -15z"/>
<path d="M2680 365 c-10 -12 -9 -15 8 -15 11 0 22 7 26 15 3 9 0 15 -8 15 -7
0 -19 -7 -26 -15z"/>
<path d="M3936 365 c-19 -14 -19 -15 7 -15 17 0 27 5 27 15 0 19 -9 19 -34 0z"/>
<path d="M4202 365 c-11 -13 -9 -15 13 -15 16 0 25 6 25 15 0 19 -21 19 -38 0z"/>
<path d="M3240 60 c0 -5 5 -10 10 -10 6 0 10 5 10 10 0 6 -4 10 -10 10 -5 0
-10 -4 -10 -10z"/>
</g>
</svg>
